<svg width="14" height="27" viewBox="0 0 14 27" fill="none" xmlns="http://www.w3.org/2000/svg">
<g clip-path="url(#clip0_895_2570)">
<path fill-rule="evenodd" clip-rule="evenodd" d="M-0.0180664 13.4557C-0.0180664 14.0255 0.213228 14.1985 0.547713 14.5465L11.0916 25.5181C11.3649 25.8025 11.6253 26.0735 11.8986 26.3579C12.3317 26.8086 12.402 27.0014 13.0872 27.0014C13.5408 27.0014 13.982 26.501 13.982 25.9243C13.982 25.4711 13.6594 25.2144 13.4337 24.9796L9.39862 20.7808C9.32874 20.7085 9.29079 20.6492 9.22335 20.5798C8.82196 20.1669 2.50312 13.6116 2.43807 13.5105C2.46893 13.4626 2.48264 13.453 2.52572 13.4191L2.80214 13.1408C2.86778 13.0725 2.92097 13.0176 2.98616 12.949C3.05286 12.8788 3.10985 12.8393 3.17933 12.7666L11.2671 4.35078C11.3912 4.22157 11.5025 4.10575 11.6267 3.97654C11.6601 3.94183 11.6818 3.92026 11.7148 3.88562C11.7578 3.84037 11.7644 3.82063 11.8023 3.77587C11.96 3.58947 12.5254 3.02309 12.7232 2.81731C12.9731 2.55726 13.2101 2.31061 13.4601 2.05055C13.7682 1.72994 13.982 1.55793 13.982 0.987171C13.982 0.38347 13.4651 0.00138092 12.9118 0.00138092C12.6029 0.00138092 12.319 0.265713 12.1148 0.43172C11.9363 0.576862 11.6692 0.883654 11.5039 1.05563C11.3643 1.20093 11.2497 1.33843 11.1091 1.48464C10.5669 2.04893 10.0374 2.59987 9.49512 3.16416C8.92082 3.76179 0.346321 12.6507 0.212301 12.8375C0.0873547 13.0117 -0.0180664 13.2181 -0.0180664 13.4557Z" fill="black"/>
</g>
<defs>
<clipPath id="clip0_895_2570">
<rect width="14" height="27" fill="white"/>
</clipPath>
</defs>
</svg>
