<svg width="103" height="16" viewBox="0 0 103 16" fill="none" xmlns="http://www.w3.org/2000/svg">
<path d="M27.8493 8.13179C27.79 10.9334 30.2063 13.2311 32.9931 13.1866C34.8164 13.1866 36.358 12.312 37.1882 10.9334L36.0023 10.0589C35.3056 11.141 34.2976 11.7487 33.0079 11.7487C31.0067 11.7487 29.4799 10.2071 29.4799 8.13179C29.4799 6.0565 31.0067 4.51485 33.0079 4.51485C34.2976 4.51485 35.3056 5.12262 36.0023 6.20474L37.1882 5.33015C36.3432 3.95156 34.7867 3.07697 32.9931 3.07697C30.2063 3.0325 27.79 5.33015 27.8493 8.13179ZM38.3597 9.37697C38.3152 11.4374 40.1088 13.2311 42.199 13.1866C44.3187 13.2311 46.1124 11.4374 46.0679 9.37697C46.1124 7.3165 44.3187 5.53768 42.199 5.58215C40.1088 5.5525 38.3152 7.28685 38.3597 9.37697ZM44.467 9.39179C44.467 10.7111 43.4886 11.7487 42.199 11.7487C40.9241 11.7487 39.9458 10.7407 39.9458 9.39179C39.9458 8.04285 40.9241 7.00521 42.2138 7.00521C43.4738 7.00521 44.467 8.04285 44.467 9.39179ZM55.4123 9.37697C55.4123 7.22756 53.9003 5.58215 51.8398 5.58215C50.7725 5.58215 49.8386 6.01203 49.305 6.76803V5.74521H47.8523V15.6918H49.4088V12.1341C49.9869 12.8012 50.8466 13.1866 51.8398 13.1866C53.9003 13.1866 55.4123 11.556 55.4123 9.37697ZM53.8113 9.39179C53.8113 10.7852 52.833 11.7636 51.5878 11.7636C50.4464 11.7636 49.3939 10.9779 49.3939 9.37697C49.3939 7.79085 50.4464 7.00521 51.5878 7.00521C52.8478 7.00521 53.8113 7.99838 53.8113 9.39179ZM62.1143 5.74521L59.9649 11.0372L57.8747 5.74521H56.1997L59.1051 12.6974L58.8086 13.3793C58.4529 14.1946 57.9489 14.4466 57.2225 14.4466C57.1039 14.4466 56.8223 14.4318 56.3627 14.3873V15.7066C56.763 15.8104 57.1632 15.8549 57.5634 15.8549C58.8086 15.8549 59.6239 15.2323 60.2317 13.8537L63.7745 5.74521H62.1143ZM69.4386 13.0236H75.4866V11.6153H71.0099V3.24003H69.4386V13.0236ZM76.9637 13.0236H78.5202V5.74521H76.9637V13.0236ZM76.6821 3.0325C76.6821 3.61062 77.1564 4.05532 77.7494 4.05532C78.3275 4.05532 78.8019 3.61062 78.8019 3.0325C78.8019 2.45438 78.3275 1.99485 77.7494 1.99485C77.1564 1.99485 76.6821 2.45438 76.6821 3.0325ZM87.1302 8.47274C87.1302 6.73838 86.1074 5.58215 84.4027 5.58215C83.4985 5.58215 82.7721 5.87862 82.2237 6.45674V5.74521H80.771V13.0236H82.3274V8.68027C82.3274 7.68709 83.0241 6.99038 83.9877 6.99038C84.9364 6.99038 85.5738 7.67226 85.5738 8.68027V13.0236H87.1302V8.47274ZM89.2974 13.0236H90.8538V1.90591H89.2974V13.0236ZM92.7364 8.94709L95.6715 5.74521H93.7444L90.8983 8.93226L94.0557 13.0236H95.9235L92.7364 8.94709Z" fill="black"/>
<path fill-rule="evenodd" clip-rule="evenodd" d="M4.23519 3.00277V9.02916C4.23519 9.58696 4.46122 10.2056 4.75442 10.6226C4.85197 10.7613 4.96051 10.8899 5.08257 11.0218C5.52667 11.5015 6.35505 11.9038 7.04057 11.9038H12.5821C13.3705 11.9038 14.0606 11.4451 14.5654 10.9432C15.0359 10.4755 15.3528 9.68519 15.3528 8.75208V4.31888H13.4479C12.1762 4.31888 11.0928 3.23549 11.0928 1.96374V0.0588379H7.38691C6.671 0.0588379 6.12807 0.208476 5.59253 0.550332C4.77837 1.07006 4.23519 2.00334 4.23519 3.00277V3.00277ZM15.0411 3.2452C14.9793 3.01366 13.2404 1.35794 12.9371 1.05458C12.7718 0.889346 12.3724 0.425544 12.1665 0.370554C12.1665 0.844244 12.1649 1.31811 12.1653 1.79175C12.166 2.64839 12.7293 3.23714 13.5851 3.24661C14.0685 3.25195 14.557 3.2452 15.0411 3.2452V3.2452ZM0.529297 6.18913V11.7306C0.529297 12.6962 0.812391 13.3525 1.41133 14.0003C1.50312 14.0996 1.71006 14.2707 1.82602 14.3476C1.99022 14.4566 2.1578 14.5428 2.34139 14.6288C2.68922 14.7919 3.18224 14.8824 3.68104 14.8824H8.42594C9.42199 14.8824 10.0458 14.6309 10.667 14.1102C10.8019 13.9971 10.8508 13.9082 10.9633 13.7831C11.1179 13.611 11.346 13.2632 11.4045 13.0121C10.4116 13.0121 9.4188 13.0121 8.42594 13.0121C7.28588 13.0121 6.55119 13.0525 5.70925 12.7156C4.70281 12.3129 3.8553 11.4926 3.45802 10.499C3.33381 10.1884 3.1713 9.67126 3.16033 9.27277C3.1335 8.29643 3.16151 7.27458 3.16151 6.29303C3.16151 5.28751 3.15896 4.28173 3.16411 3.27634C3.16498 3.10373 3.19621 3.06099 3.07661 3.05546C2.9081 3.04766 2.35567 3.25417 2.20268 3.32541C1.19283 3.79563 0.529297 4.86924 0.529297 6.18913V6.18913Z" fill="black"/>
</svg>
