<svg width="21" height="15" viewBox="0 0 21 15" fill="none" xmlns="http://www.w3.org/2000/svg">
<path fill-rule="evenodd" clip-rule="evenodd" d="M8.33571 8.79931C8.24009 8.59427 7.98837 8.081 7.97069 7.53649C7.95034 6.9099 8.25605 6.23545 8.71726 5.8025C9.60192 4.97204 10.6919 4.90677 11.7409 5.41636C11.6417 5.51568 11.4491 5.71454 11.3189 5.83431C10.5249 6.60995 9.72582 7.376 8.93449 8.15409C8.92894 8.1599 8.92124 8.1684 8.91564 8.17409L8.87625 8.21245C8.66938 8.40504 8.46601 8.65354 8.33571 8.79931ZM16.2367 4.52427C17.1065 5.09449 18.297 6.26827 18.8693 7.08072C18.9814 7.23995 19.0981 7.37736 19.2001 7.52577C19.1383 7.61563 19.0681 7.69813 19.0032 7.79431C18.9329 7.8984 18.8756 7.97809 18.7896 8.08509C18.7041 8.19136 18.6445 8.25909 18.5645 8.36459C18.3348 8.66745 17.6308 9.39186 17.3595 9.64627C17.2568 9.74249 17.2042 9.75936 17.1022 9.85604C16.2606 10.6541 14.7403 11.541 13.6122 11.9046C12.9711 12.1112 11.8695 12.4057 11.1258 12.3986C10.6474 12.394 10.3702 12.4639 9.67369 12.3927C9.40247 12.365 8.52135 12.2396 8.36815 12.168L7.33476 13.1949C7.82238 13.4327 9.45711 13.6643 10.1013 13.6643C11.7246 13.6643 12.745 13.5691 14.1921 13.0449C15.2202 12.6726 15.8786 12.3005 16.7975 11.7078C17.6195 11.1776 18.2218 10.5637 18.9146 9.89495L19.3749 9.38409C19.5355 9.18286 19.6702 9.02527 19.8246 8.82468C20.7625 7.60672 20.8455 7.54827 19.9091 6.3364L19.082 5.3389C18.7559 4.92409 17.6782 3.95577 17.1519 3.61245L16.2367 4.52427ZM9.51045 11.0938C9.95663 11.1299 9.71275 11.2089 10.6921 11.2089C11.1972 11.2089 11.7709 11.0273 12.1107 10.8642C12.3301 10.7588 12.4837 10.6817 12.6844 10.5405C13.0598 10.2765 13.1023 10.1978 13.3804 9.91409C13.5933 9.69691 13.7696 9.39699 13.9093 9.12481C14.2236 8.5124 14.365 7.65886 14.238 6.9494C14.212 6.80418 14.1701 6.70454 14.1584 6.56663C14.0475 6.6389 13.0324 7.61313 12.9974 7.69949C12.9696 7.76827 12.9743 7.84681 12.9596 7.93113C12.8278 8.68718 12.2939 9.39613 11.5981 9.71268C11.101 9.9389 10.7633 9.92859 10.6735 9.96304C10.5849 9.99709 9.58465 10.9859 9.51045 11.0938ZM12.6616 4.49486C12.2848 4.30072 12.353 4.27045 11.8069 4.06127C10.4728 3.55036 8.69407 3.96286 7.81113 4.91145C7.73413 4.99422 7.70095 5.04577 7.60949 5.13704C7.52488 5.22145 7.47429 5.29313 7.4 5.3934C6.70775 6.32713 6.50391 7.67849 6.92675 8.77627C7.12037 9.27899 7.1928 9.2849 7.38343 9.6359C7.33989 9.69927 7.27321 9.79009 7.20769 9.84836L5.80792 11.1705C5.35815 11.0535 3.59919 9.65081 3.34252 9.35163C2.80184 8.72131 2.53589 8.59027 1.90887 7.67877C1.88484 7.64386 1.89371 7.65395 1.86076 7.61054C1.82739 7.56649 1.81867 7.55763 1.79025 7.52577L2.25379 6.90304C3.08973 5.91813 3.39091 5.55413 4.46327 4.71977C4.66734 4.56099 4.88845 4.40918 5.09863 4.2644C6.46163 3.32559 7.93396 2.8974 9.56594 2.66899C9.76147 2.64163 9.9438 2.66854 10.1349 2.64772C11.278 2.52309 13.1573 2.90981 13.922 3.26718C13.8919 3.34804 13.9112 3.30354 13.8627 3.3629L12.6616 4.49486ZM14.9855 2.30804C14.8578 2.29768 14.6501 2.19554 14.5264 2.14131C14.186 1.99204 13.4712 1.77627 13.1029 1.68636C11.0561 1.18668 8.74115 1.30286 6.79823 2.00659C6.58646 2.08327 6.31635 2.18245 6.09651 2.28222L4.81047 2.94786C4.68699 3.01959 4.61941 3.06522 4.49519 3.13954C4.37885 3.20918 4.30082 3.27472 4.19293 3.3439C3.70097 3.65931 3.46553 3.9079 3.09005 4.18795C2.45245 4.66345 0.411621 6.92927 0.411621 7.44904C0.411621 7.97422 1.16057 8.85681 1.52667 9.27877C1.62481 9.39186 1.6978 9.48331 1.80009 9.5879L2.35151 10.1634C3.16929 10.9599 3.37262 11.1067 4.1989 11.7018C4.41333 11.8563 4.78214 12.051 4.86255 12.168L3.89949 13.0715C3.89314 13.0766 3.88385 13.0834 3.87755 13.0885L3.54001 13.4119C3.53413 13.4174 3.52592 13.4255 3.51999 13.4309L3.47944 13.468C3.31587 13.6132 2.93251 14.0013 2.93251 14.2014C2.93251 14.6644 3.16612 14.892 3.64151 14.892C3.98736 14.892 5.24517 13.541 5.54201 13.2519L16.3543 2.72045C16.6544 2.42813 18.0578 1.18718 18.0578 0.850131C18.0578 0.187995 17.4111 -0.121914 16.8344 0.464177C16.5688 0.721586 15.1501 2.0909 14.9855 2.30804Z" fill="#838383"/>
</svg>
