<svg width="52" height="47" viewBox="0 0 52 47" fill="none" xmlns="http://www.w3.org/2000/svg">
<path d="M0 17C0 7.61116 7.61116 0 17 0H34.0869C43.4758 0 51.087 7.61116 51.087 17V30C51.087 39.3888 43.4758 47 34.087 47H17C7.61117 47 0 39.3888 0 30V17Z" fill="white"/>
<g clip-path="url(#clip0_895_1765)">
<path fill-rule="evenodd" clip-rule="evenodd" d="M21.8266 16.9959V19.4803H17.7272C17.4821 19.4803 17.1846 19.8237 17.1846 20.2682V25.0553C17.1846 25.4539 17.396 25.843 17.7875 25.843H21.8266V38.4471C21.8266 38.8986 22.0464 39.3561 22.3692 39.3561H27.7948C28.172 39.3561 28.3976 39.0201 28.3976 38.629V25.843H33.1601C33.6082 25.843 33.7629 25.3943 33.7629 24.934V20.3893C33.7629 19.9001 33.5719 19.4803 33.0998 19.4803H28.3976V16.4506C28.3976 14.2736 29.5873 14.5085 30.5423 14.3647C32.4256 14.0812 33.9438 14.8895 33.9438 13.5419V9.11834C33.9438 8.68009 33.7027 8.33057 33.2807 8.33057H29.1194C28.3806 8.36503 27.6907 8.4359 27.1308 8.57215C26.3561 8.76072 26.3664 8.81002 25.7095 9.08267C25.4916 9.17302 25.2797 9.31135 25.084 9.42347C24.6141 9.69299 23.8389 10.3811 23.5133 10.8139C22.0718 12.7301 21.8266 14.4366 21.8266 16.9959Z" fill="#2E64AB"/>
</g>
<defs>
<clipPath id="clip0_895_1765">
<rect width="17.1447" height="31.3333" fill="white" transform="translate(17.0288 8.17395)"/>
</clipPath>
</defs>
</svg>
