<svg width="20" height="20" viewBox="0 0 20 20" fill="none" xmlns="http://www.w3.org/2000/svg">
<path fill-rule="evenodd" clip-rule="evenodd" d="M0 9.84381C0 10.504 0.0619845 10.8228 0.556254 11.3188C0.833814 11.5974 1.24144 11.848 1.79731 11.8356C2.29116 11.8245 2.14848 11.7924 2.14848 13.2422C2.14848 14.3073 2.07067 17.9093 2.21769 18.4465C2.44697 19.2842 3.29637 20.0001 4.1797 20.0001H7.50002C8.24686 20.0001 8.08599 19.0904 8.08599 18.672L8.08505 14.8429C8.0816 14.2058 8.47061 13.7501 8.94537 13.7501H11.0547C11.3262 13.7501 11.5339 13.9227 11.6715 14.0708C11.8345 14.2465 11.9159 14.4712 11.9155 14.8034C11.9149 15.3638 11.8658 19.3431 11.9362 19.5873C12.0027 19.8179 12.218 20.0001 12.5001 20.0001H15.8204C16.3253 20.0001 16.8037 19.7494 17.0806 19.5025C18.0041 18.679 17.8516 18.0363 17.8516 16.7579V12.3829C17.8508 11.8873 17.7255 11.8249 18.2028 11.8356C19.2231 11.8584 19.943 11.0009 20.0001 10.0896V9.85652C19.9812 9.55964 19.8894 9.26445 19.7118 8.99927C19.4572 8.6191 12.6601 1.89842 11.709 0.947294C11.0098 0.247985 10.863 0 9.84381 0C9.13349 0 8.68085 0.557529 8.31059 0.927735L0.927735 8.31059C0.557529 8.68085 0 9.13349 0 9.84381Z" fill="white"/>
</svg>
