<svg width="27" height="25" viewBox="0 0 27 25" fill="none" xmlns="http://www.w3.org/2000/svg">
<path d="M0 10C0 4.47715 4.47715 0 10 0H17C22.5228 0 27 4.47715 27 10V15C27 20.5228 22.5228 25 17 25H10C4.47715 25 0 20.5228 0 15V10Z" fill="white"/>
<path fill-rule="evenodd" clip-rule="evenodd" d="M22 11.5102C22 13.3266 20.9917 15.0458 20.0371 16.3111C19.9774 16.3902 19.9811 16.4015 19.9183 16.4808C19.4063 17.1274 18.8383 17.7317 18.2733 18.3147L15.1769 20.9474C14.5181 21.4365 14.2837 21.6892 13.4033 21.6892C12.7696 21.6892 12.2809 21.2583 11.8854 20.9646C11.4423 20.6356 11.0339 20.3181 10.6092 19.9707C10.1861 19.6246 9.80882 19.2755 9.39222 18.9108L8.22397 17.7535C7.10633 16.5046 6.04762 15.247 5.44273 13.5621C4.94173 12.1666 4.89358 10.7836 5.38697 9.39624C5.80181 8.22975 6.51765 7.27792 7.54307 6.70826C8.40576 6.22901 8.79822 6.16194 9.80198 6.16194C10.8844 6.16194 12.1117 6.85373 12.7934 7.61758C12.9393 7.78101 13.4274 8.2684 13.4807 8.49103L13.5582 8.49103C13.6116 8.26847 14.0816 7.80075 14.2262 7.63918C14.3703 7.47807 14.4344 7.41311 14.5981 7.27709C16.0611 6.06191 17.8112 5.77006 19.4701 6.69388C20.1808 7.08971 20.8461 7.74126 21.2522 8.50443C21.7288 9.39988 22 10.3444 22 11.5102Z" fill="#E3393F"/>
</svg>
