<svg width="57" height="15" viewBox="0 0 57 15" fill="none" xmlns="http://www.w3.org/2000/svg">
<path d="M28.4423 13.0471H34.4903V11.6389H30.0136V3.26359H28.4423V13.0471ZM35.9674 13.0471H37.5239V5.76877H35.9674V13.0471ZM35.6858 3.05606C35.6858 3.63418 36.1601 4.07888 36.7531 4.07888C37.3312 4.07888 37.8055 3.63418 37.8055 3.05606C37.8055 2.47794 37.3312 2.01841 36.7531 2.01841C36.1601 2.01841 35.6858 2.47794 35.6858 3.05606ZM39.7746 13.0471H41.3311V1.92947H39.7746V13.0471ZM43.2137 8.97065L46.1487 5.76877H44.2217L41.3756 8.95582L44.533 13.0471H46.4007L43.2137 8.97065ZM53.9411 9.91935C54.0152 9.57841 54.0596 9.2523 54.0596 8.941C54.0596 7.04359 52.6218 5.60571 50.6947 5.60571C48.6342 5.56124 46.8851 7.32524 46.9295 9.41535C46.9295 11.5648 48.6194 13.2102 50.8429 13.2102C51.9547 13.2102 52.9182 12.8248 53.7483 12.0391L53.0072 10.9718C52.3549 11.5499 51.6434 11.8316 50.8874 11.8316C49.6422 11.8316 48.7083 11.1052 48.5156 9.91935H53.9411ZM48.5453 8.70382C48.7825 7.62171 49.6126 6.925 50.6354 6.925C51.6582 6.925 52.4883 7.59206 52.5032 8.70382H48.5453Z" fill="black"/>
<path fill-rule="evenodd" clip-rule="evenodd" d="M4.49577 14.1257C4.64212 14.1598 4.83013 14.2247 4.98454 14.2739C6.19001 14.658 7.63017 14.9075 8.92549 14.9075H12.8341C13.5702 14.9075 14.7427 13.9259 14.0211 12.562C14.3407 12.4875 14.6861 12.0228 14.8067 11.6682C15.05 10.9529 14.6407 10.4427 14.6291 10.3034C14.8052 10.2563 15.0335 9.96698 15.1273 9.81713C15.5021 9.21832 15.3957 8.41821 14.9125 7.93499C14.8262 7.84864 14.687 7.77634 14.6291 7.69724C14.6769 7.51815 15.0043 7.13268 14.8331 6.45071C14.6664 5.78615 14.0299 5.29382 13.2973 5.29382H10.1415C10.1475 5.02465 10.5468 3.46973 10.5468 2.39811C10.5468 1.65372 10.5892 0.625192 9.88176 0.254457C9.38095 -0.00798923 8.73956 0.017803 8.32397 0.435536L8.07631 0.766978C8.00285 0.900627 7.95245 1.01464 7.8954 1.16518C7.77483 1.4834 7.08138 3.37047 6.90812 3.68152C6.75724 3.95238 6.37413 4.47493 6.16803 4.67873L5.95229 4.89731C5.74676 5.1247 5.49455 5.33736 5.27048 5.54742L4.94991 5.80594C4.36672 6.27819 4.49577 5.98191 4.49577 7.08914V14.1257V14.1257ZM0.529297 7.03123V13.5176C0.529297 13.7309 0.766181 13.923 0.99253 13.923H3.6272V6.59688H0.905677C0.699874 6.59688 0.529297 6.81615 0.529297 7.03123V7.03123Z" fill="black"/>
</svg>
