<svg width="38" height="10" viewBox="0 0 38 10" fill="none" xmlns="http://www.w3.org/2000/svg">
<path d="M12.996 9H17.892V7.86H14.268V1.08H12.996V9ZM19.0878 9H20.3478V3.108H19.0878V9ZM18.8598 0.912C18.8598 1.38 19.2438 1.74 19.7238 1.74C20.1918 1.74 20.5758 1.38 20.5758 0.912C20.5758 0.443999 20.1918 0.0719998 19.7238 0.0719998C19.2438 0.0719998 18.8598 0.443999 18.8598 0.912ZM26.2738 3.108L24.5578 7.008L22.8298 3.108H21.4858L24.3418 9.132H24.7738L27.6178 3.108H26.2738ZM33.8254 6.468C33.8854 6.192 33.9214 5.928 33.9214 5.676C33.9214 4.14 32.7574 2.976 31.1974 2.976C29.5294 2.94 28.1134 4.368 28.1494 6.06C28.1494 7.8 29.5174 9.132 31.3174 9.132C32.2174 9.132 32.9974 8.82 33.6694 8.184L33.0694 7.32C32.5414 7.788 31.9654 8.016 31.3534 8.016C30.3454 8.016 29.5894 7.428 29.4334 6.468H33.8254ZM29.4574 5.484C29.6494 4.608 30.3214 4.044 31.1494 4.044C31.9774 4.044 32.6494 4.584 32.6614 5.484H29.4574Z" fill="black"/>
<circle cx="3" cy="5" r="3" fill="#E31F29"/>
</svg>
