<svg width="20" height="18" viewBox="0 0 20 18" fill="none" xmlns="http://www.w3.org/2000/svg">
<path fill-rule="evenodd" clip-rule="evenodd" d="M16.0187 1.96722H18.7822C19.4441 1.96722 20 2.28422 20 2.99766V5.01172H0V3.04449C0 2.34155 0.510225 1.96722 1.2178 1.96722H3.98126V0H6.04214V1.96722H8.99297V0H11.007V1.96722H14.0047V0H16.0187V1.96722ZM17.9406 17.4131H2.05939C0.926723 17.4131 0 16.4864 0 15.3536V5.68104H20V15.3536C20 16.4864 19.0733 17.4131 17.9406 17.4131ZM5.67747 15.0223H3.73212C3.47983 15.0223 3.27342 14.8159 3.27342 14.5636V12.6182C3.27342 12.3659 3.47983 12.1595 3.73212 12.1595H5.67747C5.92976 12.1595 6.13617 12.3659 6.13617 12.6182V14.5636C6.13617 14.8159 5.92976 15.0223 5.67747 15.0223ZM16.2679 8.074H14.3225C14.0702 8.074 13.8638 8.28041 13.8638 8.5327V10.478C13.8638 10.7303 14.0702 10.9367 14.3225 10.9367H16.2679C16.5202 10.9367 16.7266 10.7303 16.7266 10.478V8.5327C16.7266 8.28041 16.5202 8.074 16.2679 8.074ZM10.9727 8.074H9.02732C8.77503 8.074 8.56863 8.28041 8.56863 8.5327V10.478C8.56863 10.7303 8.77503 10.9367 9.02732 10.9367H10.9727C11.225 10.9367 11.4314 10.7303 11.4314 10.478V8.5327C11.4314 8.28041 11.225 8.074 10.9727 8.074ZM5.67747 8.074H3.73212C3.47983 8.074 3.27342 8.28041 3.27342 8.5327V10.478C3.27342 10.7303 3.47983 10.9367 3.73212 10.9367H5.67747C5.92976 10.9367 6.13617 10.7303 6.13617 10.478V8.5327C6.13617 8.28041 5.92976 8.074 5.67747 8.074ZM16.2679 12.1574H14.3225C14.0702 12.1574 13.8638 12.3638 13.8638 12.6161V14.5614C13.8638 14.8137 14.0702 15.0201 14.3225 15.0201H16.2679C16.5202 15.0201 16.7266 14.8137 16.7266 14.5614V12.6161C16.7266 12.3638 16.5202 12.1574 16.2679 12.1574ZM10.9727 12.1574H9.02732C8.77503 12.1574 8.56863 12.3638 8.56863 12.6161V14.5614C8.56863 14.8137 8.77503 15.0201 9.02732 15.0201H10.9727C11.225 15.0201 11.4314 14.8137 11.4314 14.5614V12.6161C11.4314 12.3638 11.225 12.1574 10.9727 12.1574Z" fill="white"/>
</svg>
