<svg width="20" height="19" viewBox="0 0 20 19" fill="none" xmlns="http://www.w3.org/2000/svg">
<path fill-rule="evenodd" clip-rule="evenodd" d="M0 17.3858C0.00127559 17.8499 0.305859 18.274 0.555876 18.5067C1.0544 18.9706 1.90862 19.0432 2.46936 18.7194C3.07971 18.367 3.35935 17.8314 3.35935 17.0313V2.92971C3.35935 2.51854 3.13848 2.22657 2.73435 2.22657H0.664065C0.304678 2.22657 0.00127559 2.42878 0 2.73251V17.3858ZM3.98434 18.9454H16.7969C17.2806 18.9454 17.7159 18.9092 18.0816 18.7848C18.7572 18.555 19.3381 18.1161 19.6621 17.4746C19.8212 17.1596 19.9988 16.7855 20 16.3329V0.505986C19.9987 0.171024 19.6482 0 19.2969 0H5.19531C4.23951 0 4.41408 0.730774 4.41408 1.75782V17.0313C4.41408 17.9149 4.35077 18.1572 3.93837 18.7909C3.89779 18.8532 3.817 18.9454 3.98434 18.9454ZM7.80621 2.81769H16.7016C17.2248 2.81769 17.6528 3.24568 17.6528 3.76882V3.76886C17.6528 4.292 17.2248 4.71998 16.7016 4.71998H7.80621C7.28308 4.71998 6.85509 4.292 6.85509 3.76886V3.76882C6.85509 3.24568 7.28308 2.81769 7.80621 2.81769ZM7.80621 6.44402H16.7016C17.2248 6.44402 17.6528 6.87201 17.6528 7.39514V7.39519C17.6528 7.91832 17.2248 8.34631 16.7016 8.34631H7.80621C7.28308 8.34631 6.85509 7.91832 6.85509 7.39519V7.39514C6.85509 6.87201 7.28308 6.44402 7.80621 6.44402ZM7.80621 10.0703H16.7016C17.2248 10.0703 17.6528 10.4983 17.6528 11.0215V11.0215C17.6528 11.5447 17.2248 11.9726 16.7016 11.9726H7.80621C7.28308 11.9726 6.85509 11.5447 6.85509 11.0215V11.0215C6.85509 10.4983 7.28308 10.0703 7.80621 10.0703ZM7.80621 13.6967H16.7016C17.2248 13.6967 17.6528 14.1247 17.6528 14.6478V14.6478C17.6528 15.171 17.2248 15.599 16.7016 15.599H7.80621C7.28308 15.599 6.85509 15.171 6.85509 14.6478V14.6478C6.85509 14.1247 7.28308 13.6967 7.80621 13.6967Z" fill="white"/>
</svg>
