<svg width="281" height="203" viewBox="0 0 281 203" fill="none" xmlns="http://www.w3.org/2000/svg">
<g clip-path="url(#clip0_895_1956)">
<path d="M265.78 146.219C263.408 136.99 268.257 127.639 272.459 119.091C276.028 111.834 279.274 104.257 280.181 96.2165C281.089 88.1756 279.388 79.5254 274.044 73.4653C264.501 62.6433 247.735 63.5054 233.43 65.1553C219.124 66.8051 202.273 67.4139 193.007 56.3518C187.62 49.9207 186.339 41.1241 184.006 33.0552C179.613 17.8623 168.376 2.52755 152.636 1.67402C142.038 1.09918 132.297 7.23773 123.955 13.8232C111.436 23.7055 100.014 35.3546 92.4248 49.408C88.297 57.0518 85.3642 65.2854 81.494 73.0636C74.3381 87.4458 63.1116 100.782 47.8535 105.674C36.6295 109.273 23.8541 108.139 13.7379 114.201C-1.26337 123.192 -3.81453 145.739 5.25364 160.728C7.96833 165.215 11.4311 169.084 15.4133 172.379C24.8685 180.204 36.8518 184.288 49.1073 184.288H270.372C277.888 184.288 283.109 176.592 280.155 169.657C280.135 169.611 280.115 169.564 280.095 169.518C276.44 161.105 268.064 155.106 265.78 146.219Z" fill="#FEFEFE"/>
<path d="M47.9728 87.4737C43.8819 88.9646 38.721 88.2587 36.0756 84.9086C32.7038 80.6386 34.5936 74.4889 36.6141 69.4363C39.8308 61.3941 55.4836 42.1235 63.3943 56.4697C68.9205 66.4917 57.5799 83.9727 47.9728 87.4737Z" fill="#F00911"/>
<path d="M232.952 58.3075C237.886 58.0449 243.076 55.5423 244.901 50.9341C246.466 46.9817 245.145 42.2517 242.264 39.1325C236.67 33.076 221.137 30.1422 216.474 38.9656C210.972 49.3764 223.64 58.8028 232.952 58.3075Z" fill="#F00911"/>
<path d="M104.856 170.339C104.856 170.505 104.855 170.672 104.85 170.838H104.85C104.846 171.003 104.84 171.168 104.831 171.333H104.831C104.806 171.827 104.763 172.316 104.702 172.799H104.702C104.681 172.961 104.659 173.121 104.635 173.281H104.634C104.61 173.441 104.584 173.6 104.556 173.759H104.556C104.528 173.917 104.497 174.075 104.465 174.232C104.433 174.39 104.399 174.546 104.364 174.702C104.328 174.858 104.29 175.013 104.251 175.167H104.25C104.211 175.321 104.169 175.475 104.126 175.628H104.126C104.083 175.78 104.038 175.933 103.991 176.084L103.991 176.084C103.944 176.235 103.896 176.385 103.845 176.535H103.845C103.794 176.685 103.742 176.834 103.688 176.981V176.982C103.634 177.13 103.579 177.276 103.521 177.423L103.521 177.423C103.464 177.569 103.405 177.714 103.344 177.859V177.859C103.283 178.003 103.22 178.147 103.156 178.289V178.29C103.092 178.432 103.026 178.574 102.958 178.715H102.958C102.891 178.855 102.821 178.995 102.75 179.134V179.134C102.68 179.273 102.607 179.411 102.533 179.548V179.548C102.459 179.684 102.383 179.82 102.306 179.955V179.955C102.229 180.09 102.15 180.224 102.069 180.357V180.357C101.989 180.489 101.907 180.621 101.824 180.752V180.752C101.74 180.882 101.655 181.012 101.569 181.141C101.482 181.269 101.394 181.396 101.305 181.523V181.523C101.215 181.649 101.124 181.774 101.032 181.898V181.898C100.847 182.146 100.657 182.389 100.46 182.628V182.628C100.362 182.747 100.263 182.865 100.162 182.982V182.982C100.061 183.099 99.9592 183.214 99.8554 183.329C99.6482 183.558 99.4357 183.781 99.218 184V184C99.1091 184.109 98.999 184.217 98.8875 184.324H98.8874C98.5532 184.643 98.2076 184.951 97.8509 185.247H97.8508C97.7319 185.345 97.6119 185.442 97.491 185.538H97.4907C97.3696 185.633 97.2472 185.727 97.1238 185.82H97.1235C97 185.913 96.8752 186.004 96.7497 186.094H96.7494C96.6236 186.184 96.4969 186.272 96.3691 186.359H96.3688C96.2408 186.446 96.1117 186.531 95.9816 186.615H95.9814C95.8512 186.699 95.7201 186.781 95.588 186.861H95.5878C95.4555 186.942 95.3222 187.021 95.1879 187.099H95.1877C95.0531 187.176 94.9182 187.252 94.7818 187.327H94.7817C94.6452 187.401 94.5079 187.474 94.3696 187.545H94.3695C94.2311 187.616 94.092 187.685 93.9516 187.753L93.9515 187.753C93.8111 187.821 93.6702 187.887 93.5281 187.952H93.5279C93.3859 188.016 93.2428 188.079 93.099 188.14H93.0986C92.9547 188.201 92.8101 188.261 92.6643 188.318L92.6642 188.318C92.5184 188.376 92.372 188.432 92.2246 188.486H92.2245C92.077 188.54 91.929 188.592 91.78 188.643L91.7797 188.643C91.6307 188.694 91.4809 188.743 91.3302 188.79L91.33 188.79C91.1796 188.837 91.0281 188.882 90.8758 188.925L90.8757 188.925C90.7235 188.969 90.5703 189.01 90.4167 189.05L90.4164 189.05C90.2627 189.09 90.1083 189.128 89.9532 189.164H89.9529C89.7977 189.2 89.6419 189.234 89.4853 189.266C89.3285 189.298 89.1715 189.328 89.0134 189.356L89.0131 189.357C88.8552 189.385 88.6965 189.411 88.5372 189.436L88.5371 189.436C88.3778 189.46 88.218 189.483 88.0574 189.503L88.0571 189.503C87.8967 189.524 87.7357 189.542 87.5739 189.559L87.5736 189.559C87.412 189.575 87.2495 189.589 87.0866 189.602V189.602C86.9236 189.614 86.7602 189.625 86.5962 189.633V189.633C86.432 189.642 86.2676 189.648 86.1024 189.652V189.652C85.9371 189.656 85.7715 189.658 85.6055 189.658C85.4393 189.658 85.2736 189.656 85.1085 189.652V189.652C84.9433 189.648 84.7788 189.642 84.6147 189.633V189.633C84.4508 189.625 84.2873 189.615 84.1243 189.602V189.602C83.9613 189.589 83.799 189.575 83.6372 189.559V189.559C83.4756 189.542 83.3142 189.524 83.1536 189.503V189.503C82.9931 189.483 82.8331 189.46 82.6738 189.436V189.436C82.5144 189.411 82.3557 189.385 82.1977 189.357V189.356C82.0398 189.328 81.8823 189.298 81.7257 189.266C81.5692 189.234 81.4131 189.2 81.2578 189.164C81.1028 189.128 80.9481 189.09 80.7944 189.05V189.05C80.6407 189.01 80.4874 188.969 80.3353 188.925V188.925C80.1829 188.882 80.0315 188.837 79.8809 188.79V188.79C79.7301 188.742 79.5802 188.694 79.4311 188.643V188.643C79.2819 188.593 79.1337 188.54 78.9864 188.486C78.839 188.432 78.6924 188.376 78.5467 188.318V188.318C78.401 188.261 78.2563 188.201 78.1122 188.14C77.9683 188.079 77.8253 188.016 77.6831 187.952H77.683C77.5408 187.887 77.3996 187.821 77.2594 187.753V187.753C77.119 187.685 76.9799 187.616 76.8414 187.545C76.7031 187.473 76.5658 187.401 76.4294 187.327H76.4292C76.2928 187.252 76.1576 187.176 76.0232 187.099C75.8888 187.021 75.7556 186.942 75.6233 186.861H75.623C75.4909 186.781 75.3598 186.698 75.2295 186.615C75.0992 186.531 74.9702 186.445 74.8422 186.359H74.842C74.7141 186.272 74.5872 186.184 74.4613 186.094C74.3355 186.004 74.2109 185.913 74.0873 185.82C73.9637 185.727 73.8414 185.633 73.7203 185.538H73.7201C73.5991 185.442 73.4791 185.345 73.3602 185.247C73.2411 185.148 73.1235 185.049 73.0072 184.947V184.947C72.8908 184.846 72.7755 184.744 72.6616 184.64V184.639C72.5477 184.536 72.435 184.43 72.3235 184.324C72.1007 184.11 71.8827 183.892 71.6702 183.668V183.668C71.564 183.556 71.4591 183.443 71.3557 183.329H71.3554C71.0447 182.986 70.7462 182.631 70.4605 182.266V182.266C70.1746 181.901 69.9018 181.526 69.6423 181.141H69.6422C69.3828 180.755 69.1367 180.36 68.905 179.955V179.955C68.6732 179.551 68.4556 179.137 68.2528 178.715H68.2527C67.9147 178.011 67.6184 177.283 67.3661 176.535H67.3658C67.2649 176.236 67.1712 175.933 67.0849 175.628H67.0847C67.0416 175.475 67.0001 175.321 66.9605 175.167H66.9604C66.9208 175.013 66.8834 174.858 66.8475 174.702H66.8474C66.8114 174.546 66.7778 174.39 66.7457 174.232H66.7455C66.7134 174.075 66.6835 173.917 66.6552 173.759H66.6549C66.6269 173.6 66.6007 173.441 66.5764 173.281H66.5762C66.5519 173.121 66.5295 172.961 66.5091 172.799H66.5089C66.4887 172.638 66.4703 172.477 66.454 172.314L66.4537 172.314C66.4372 172.152 66.423 171.989 66.4106 171.825L66.4105 171.825C66.3982 171.662 66.388 171.498 66.3796 171.333H66.3794C66.371 171.168 66.3651 171.003 66.3609 170.838H66.3606C66.3564 170.672 66.3545 170.506 66.3545 170.339L104.856 170.339ZM108.962 158.411V158.41C109.343 157.924 109.747 157.456 110.172 157.009V157.009C110.491 156.673 110.821 156.349 111.163 156.037V156.037C111.277 155.933 111.393 155.831 111.509 155.73V155.73C111.625 155.628 111.743 155.529 111.862 155.43V155.43C112.1 155.233 112.342 155.042 112.589 154.857V154.856C112.713 154.764 112.837 154.673 112.963 154.583V154.583C113.215 154.403 113.471 154.23 113.731 154.062V154.062C113.992 153.895 114.256 153.733 114.525 153.578V153.578C114.794 153.423 115.067 153.274 115.343 153.132V153.132C115.482 153.061 115.621 152.992 115.761 152.924V152.924C116.042 152.788 116.326 152.659 116.614 152.537V152.537C116.758 152.476 116.903 152.416 117.049 152.359V152.359C117.34 152.243 117.635 152.135 117.933 152.034V152.034C118.082 151.983 118.232 151.934 118.383 151.887V151.887C118.533 151.84 118.685 151.795 118.837 151.752V151.751C118.989 151.708 119.142 151.667 119.296 151.627V151.627C119.758 151.508 120.225 151.405 120.699 151.32V151.32C120.858 151.292 121.016 151.266 121.176 151.241V151.241C121.335 151.217 121.495 151.194 121.655 151.174V151.174C121.816 151.153 121.977 151.135 122.139 151.118V151.118C122.301 151.102 122.463 151.087 122.626 151.075V151.075C122.789 151.062 122.952 151.052 123.117 151.044V151.044C123.281 151.035 123.445 151.029 123.61 151.025V151.025C123.775 151.02 123.941 151.019 124.107 151.019L108.962 158.411ZM108.962 158.411C109.128 158.411 109.294 158.413 109.459 158.417V158.417C109.624 158.421 109.789 158.427 109.953 158.436V158.436C110.117 158.444 110.281 158.454 110.443 158.467V158.467C115.169 158.828 119.417 160.901 122.575 164.069V164.069C122.901 164.397 123.216 164.736 123.519 165.087V165.087C123.62 165.204 123.719 165.322 123.817 165.441V165.441C124.112 165.799 124.393 166.168 124.662 166.546V166.546C124.751 166.673 124.839 166.8 124.926 166.928V166.929C125.012 167.057 125.097 167.187 125.18 167.317V167.317C125.264 167.448 125.346 167.579 125.426 167.712V167.713L108.962 158.411ZM109.199 158.812C109.276 158.947 109.352 159.083 109.426 159.219V159.22C109.5 159.356 109.572 159.494 109.643 159.633V159.633C109.714 159.772 109.783 159.912 109.851 160.052L109.851 160.053C109.919 160.193 109.984 160.335 110.049 160.478V160.478C110.113 160.62 110.175 160.764 110.236 160.908V160.908C110.297 161.053 110.356 161.198 110.414 161.344L110.414 161.344C110.472 161.491 110.527 161.638 110.581 161.786V161.786C110.635 161.934 110.687 162.082 110.738 162.232L110.738 162.232C110.788 162.382 110.837 162.532 110.884 162.683L110.884 162.684C110.931 162.835 110.975 162.987 111.019 163.139L111.019 163.14C111.062 163.292 111.104 163.446 111.143 163.6L111.143 163.601C111.183 163.755 111.22 163.91 111.256 164.065V164.066C111.292 164.222 111.326 164.378 111.358 164.535V164.535C111.39 164.692 111.42 164.85 111.448 165.009L111.449 165.009C111.477 165.167 111.503 165.327 111.527 165.486L111.527 165.487C111.552 165.646 111.574 165.807 111.594 165.968L111.595 165.968C111.615 166.129 111.633 166.291 111.65 166.453L111.65 166.453C111.666 166.616 111.681 166.779 111.693 166.942L111.693 166.942C111.706 167.106 111.716 167.27 111.724 167.434L111.724 167.435C111.733 167.599 111.739 167.764 111.743 167.93L111.743 167.93C111.747 168.096 111.749 168.262 111.749 168.429L109.199 158.812Z" fill="#F9EBDC"/>
<path d="M82.4971 163.879C79.5966 164.074 78.1982 164.196 75.5058 164.493C74.2253 166.986 73.419 168.171 72.1123 170.355C73.5225 172.539 74.2253 173.725 75.5045 176.22C78.1964 176.517 79.5949 176.641 82.4944 176.837C84.1289 174.343 84.9405 173.034 86.3866 170.359C84.8382 167.682 84.1302 166.374 82.4971 163.879Z" fill="#272533"/>
<path d="M73.976 154.942C73.4412 156.463 72.9257 157.656 72.0952 159.435C73.3953 161.272 74.0935 162.295 75.5055 164.493C78.1989 164.196 79.5972 164.074 82.497 163.879C83.7643 161.191 84.347 159.798 85.2001 156.978C83.4807 154.694 82.5223 153.475 81.023 151.571C78.4282 152.207 76.0391 153.37 73.976 154.942Z" fill="#F9EBDC"/>
<path d="M94.0107 170.359C90.8789 170.359 89.3482 170.359 86.3553 170.359C84.9098 173.033 84.0975 174.342 82.4644 176.834C83.7297 179.523 84.3118 180.916 85.1634 183.735C87.9215 184.024 89.3179 184.117 92.1449 184.201C94.3725 181.475 95.4734 180.081 97.4802 177.301C96.3807 174.529 95.6444 173.128 94.0107 170.359Z" fill="#F9EBDC"/>
<path d="M92.1572 156.517C89.3282 156.601 87.9312 156.694 85.1711 156.982C84.3176 159.801 83.7341 161.193 82.4668 163.881C84.0992 166.375 84.8079 167.683 86.3552 170.359C89.3479 170.359 90.8788 170.359 94.0106 170.359C95.5086 167.591 96.3833 166.19 97.4873 163.418C95.4824 160.637 94.383 159.244 92.1572 156.517Z" fill="#F9EBDC"/>
<path d="M72.1415 170.355C69.7325 170.354 68.4184 170.354 66.3545 170.352C66.3568 174.034 67.3864 177.476 69.1704 180.404C70.0447 180.687 70.9404 180.951 72.1205 181.282C73.4211 179.445 74.12 178.421 75.5334 176.223C74.255 173.728 73.5509 172.541 72.1415 170.355Z" fill="#F9EBDC"/>
<path d="M72.1202 181.282C70.9401 180.951 70.0447 180.687 69.1704 180.404C70.4306 182.472 72.0677 184.283 73.9852 185.742C73.4563 184.238 72.9432 183.048 72.1202 181.282Z" fill="#272533"/>
<path d="M82.4945 176.837C79.5949 176.641 78.1965 176.518 75.5046 176.22C74.0923 178.416 73.3936 179.44 72.0942 181.275C72.9143 183.034 73.4275 184.222 73.9553 185.719C76.0279 187.302 78.4302 188.473 81.0407 189.11C82.5251 187.227 83.4823 186.009 85.1923 183.739C84.3421 180.919 83.7599 179.526 82.4945 176.837Z" fill="#F9EBDC"/>
<path d="M72.1215 159.427C70.9306 159.761 70.0295 160.026 69.1477 160.311C67.3753 163.234 66.3545 166.667 66.3545 170.339L66.3547 170.352L72.1417 170.355C73.4484 168.17 74.2547 166.984 75.5347 164.49C74.1211 162.291 73.4222 161.266 72.1215 159.427Z" fill="#F9EBDC"/>
<path d="M92.1448 184.201C89.3179 184.117 87.9215 184.024 85.1634 183.736C83.4546 186.005 82.4972 187.222 81.0151 189.104C82.4862 189.466 84.0231 189.659 85.6052 189.659C88.1256 189.659 90.5328 189.172 92.7392 188.288C92.693 187.036 92.4996 185.864 92.1448 184.201Z" fill="#272533"/>
<path d="M97.4713 177.259C99.9589 177.251 101.468 177.231 103.618 177.166C104.418 175.043 104.856 172.742 104.856 170.339C104.856 167.92 104.412 165.605 103.602 163.47C101.456 163.405 99.9487 163.384 97.4645 163.376C96.3646 166.148 95.6276 167.549 93.9946 170.317C95.6291 173.086 96.3672 174.487 97.4713 177.259Z" fill="#272533"/>
<path d="M85.163 156.941C87.9212 156.653 89.3176 156.56 92.1446 156.476C92.4994 154.813 92.693 153.641 92.7392 152.39C90.5328 151.505 88.1256 151.019 85.6051 151.019C84.0232 151.019 82.4866 151.212 81.0156 151.573C82.4976 153.455 83.4544 154.673 85.163 156.941Z" fill="#272533"/>
<path d="M69.1709 160.273C70.0449 159.99 70.9405 159.726 72.1206 159.395C72.9429 157.629 73.4561 156.439 73.9853 154.935C72.0679 156.394 70.4309 158.205 69.1709 160.273Z" fill="#272533"/>
<path d="M79.216 103.927C78.9971 104.003 78.7839 104.078 78.571 104.166C78.038 104.386 77.518 104.67 77.0854 105.053C76.0705 105.952 75.6312 107.305 75.3367 108.651C75.274 108.915 75.2175 109.179 75.1677 109.437C75.1428 109.562 75.1179 109.695 75.0989 109.827V109.833H75.0923C72.4601 111.834 69.8285 113.827 67.1963 115.827C65.9743 116.751 64.6452 117.72 63.1165 117.789C62.2641 117.827 61.2487 117.393 61.1733 116.544C61.1299 116.079 61.3869 115.65 61.631 115.255C63.129 112.851 64.6328 110.449 66.1309 108.047C66.8075 106.959 67.5155 105.845 68.2866 104.789C69.9787 102.468 71.9717 100.417 74.6355 99.4937C75.3243 99.2541 76.1078 99.1035 76.7785 99.4055C78.3703 100.129 78.0943 102.67 79.216 103.927Z" fill="#272533"/>
<path d="M125.285 121.248C124.651 122.254 123.969 123.236 123.242 124.18C120.709 127.532 117.701 130.531 114.612 133.387C109.918 137.714 104.698 141.915 98.443 143.148C95.3224 143.758 91.9067 143.545 89.2431 141.815C86.8803 140.287 85.4202 137.834 84.3799 135.167C84.4551 133.752 84.6872 132.337 85.0197 130.972C85.0197 130.96 85.0257 130.953 85.0257 130.94C86.4418 125.18 89.6376 119.877 94.0623 115.952C94.1188 116.268 94.1501 116.588 94.1566 116.915C94.8896 114.513 95.9864 112.223 97.4025 110.154C97.7036 109.714 98.0169 109.285 98.3428 108.864C98.6628 108.456 99.0325 108.041 99.4455 107.714C102.178 107.959 104.873 108.626 107.411 109.676C110.012 110.751 112.438 112.223 114.568 114.06C116.442 115.682 118.097 117.563 120.083 119.035C121.029 119.732 122.082 120.343 123.191 120.745C123.874 120.997 124.576 121.173 125.285 121.248Z" fill="#E69E80"/>
<path d="M158.23 130.827C157.841 131.683 157.384 132.494 156.882 133.281C153.737 138.18 148.717 141.903 144.392 145.96C142.795 147.456 141.259 149.042 140.062 150.884C138 154.035 137.041 157.771 135.356 161.136C134.46 162.922 133.382 164.576 132.172 166.136C131.094 166.325 129.947 166.18 128.876 165.929C127.284 165.564 125.742 164.992 124.288 164.237C120.534 162.282 117.394 159.13 115.54 155.306C116.173 154.243 116.849 153.211 117.57 152.205C120.378 148.293 123.9 144.834 125.986 140.494C128.267 135.733 128.663 130.28 130.186 125.236C130.555 123.997 131 122.777 131.558 121.607C131.633 121.444 131.727 121.28 131.84 121.129C133.576 120.141 135.575 119.513 137.53 119.072C139.68 118.588 141.899 118.267 144.092 118.531C145.533 118.708 146.912 119.129 148.215 119.745C151.211 121.154 153.787 123.576 155.748 126.299C156.757 127.689 157.641 129.217 158.23 130.827Z" fill="#E69E80"/>
<path d="M238.428 9.63546C238.434 10.6607 238.115 11.7237 237.381 12.4278C236.585 13.2016 235.439 13.4529 234.467 13.9752C233.446 14.5286 232.612 15.3839 231.635 16.013C230.789 16.5539 229.73 16.9183 228.784 16.686C224.911 22.1386 219.496 26.4849 213.335 29.0759C210.365 30.3216 207.206 31.1769 204.26 32.4414C202.926 33.0133 201.641 33.6671 200.432 34.4792C197.831 36.2273 195.65 38.661 193.149 40.5172C192.015 41.3594 190.812 42.0891 189.471 42.5675C189.345 41.8186 189.283 41.0448 189.239 40.2967C189.163 39.1519 189.108 37.9947 189.089 36.8437C189.026 33.9316 189.207 31.0262 190.029 28.2588C192.228 27.9885 194.196 26.6357 195.875 25.1455C197.687 23.5479 199.328 21.7115 201.422 20.5101C202.688 19.7864 204.085 19.3145 205.477 18.8744C212.276 16.7052 219.301 15.0254 225.712 11.8869C225.712 11.8869 226.809 9.56643 227.593 8.59781C228.84 7.04447 230.431 5.75482 231.403 4.01915C232.148 2.68535 232.588 1.05054 233.872 0.232682C234.28 -0.0312542 234.925 -0.125948 235.164 0.295683C235.276 0.503162 235.238 0.761068 235.194 0.993825C235.038 1.84928 234.812 2.69215 234.518 3.50924C235.32 3.40274 236.135 3.8304 236.667 4.44681C237.05 4.88692 237.319 5.40876 237.539 5.95614C237.539 6.00618 237.557 6.05686 237.595 6.10087C237.663 6.28307 237.733 6.4654 237.795 6.64773C237.845 6.78657 237.89 6.92476 237.939 7.06949C238.209 7.89979 238.422 8.76102 238.428 9.63546Z" fill="#E69E80"/>
<path d="M228.784 16.6862C224.911 22.1386 219.496 26.485 213.336 29.076C210.365 30.3217 207.206 31.177 204.261 32.4415C202.926 33.0134 201.642 33.6673 200.432 34.4792C197.831 36.2275 195.65 38.6611 193.15 40.5173C192.015 41.3595 190.812 42.0891 189.471 42.5676C189.346 41.8187 189.283 41.0449 189.239 40.2969C189.218 39.9757 189.198 39.6535 189.181 39.3309C191.636 37.8256 195.312 35.3212 196.731 33.0534C198.944 29.5169 205.418 29.0235 207.549 28.2011C209.679 27.3786 221.172 26.6372 228.784 16.6862Z" fill="#E28966"/>
<path d="M173.891 79.4801C173.559 81.6119 173.227 83.7444 172.895 85.8767C172.839 86.2479 172.776 86.6188 172.726 86.9899C170.444 88.1032 167.856 88.4111 165.325 88.5619C157.052 89.0527 148.686 87.9578 140.82 85.3608C142.744 84.9082 144.593 84.1595 146.423 83.3982C150.127 81.8638 153.812 80.2596 157.673 79.1722C161.527 78.0899 165.594 77.5306 169.548 78.1404C171.052 78.3728 172.55 78.782 173.891 79.4801Z" fill="#E69E80"/>
<path d="M109.58 60.5989C108.846 61.6182 108.245 62.8197 107.612 63.8821C106.678 65.4481 105.506 66.87 104.153 68.0773C100.725 71.1466 96.2876 72.7568 92.2325 74.92C87.7268 77.3228 83.6535 80.4423 79.5987 83.5432L79.573 83.5307C79.053 84.625 78.345 85.6059 77.3551 86.2856C75.5877 87.4928 73.2878 87.5061 71.1571 87.3041C69.0265 87.1093 66.8328 86.7507 64.7833 87.3605C64.2693 87.5179 63.756 87.7318 63.223 87.7133C62.6841 87.6877 62.1071 87.3291 62.0698 86.7882C62.0323 86.2288 62.5583 85.8072 63.029 85.4927C63.6367 85.0966 64.2379 84.694 64.8397 84.2978C64.94 83.7821 65.1281 83.2977 65.3786 82.8386C65.9489 81.8135 66.8577 80.9522 67.8666 80.3356C69.4085 79.4046 71.1819 78.958 72.9239 78.5368C74.6724 78.1156 78.1634 76.9893 78.1634 76.9893C84.3052 71.8256 86.9368 62.8005 94.0442 59.014C95.6418 58.1587 97.3902 57.6243 99.02 56.8314C101.577 55.5927 103.82 53.7122 105.506 51.4226C105.838 52.6556 106.227 53.8694 106.684 55.0584C107.135 56.2216 107.65 57.3598 108.251 58.4547C108.652 59.1902 109.097 59.9076 109.58 60.5989Z" fill="#E69E80"/>
<path d="M109.579 60.599C108.846 61.6182 108.245 62.8197 107.611 63.8822C106.678 65.4481 105.506 66.8701 104.152 68.0774C100.724 71.1467 96.2873 72.7567 92.2323 74.9201C88.9847 76.6518 85.962 78.7558 83.0088 80.9567C84.8653 79.1705 87.1279 77.0188 88.2298 76.0681C90.2787 74.2998 100.932 65.7874 103.472 62.9088C105.012 61.1645 106.521 58.6352 107.471 56.9126C107.714 57.4347 107.973 57.9492 108.251 58.4546C108.652 59.1903 109.097 59.9075 109.579 60.599Z" fill="#E28966"/>
<path d="M192.667 45.9257C192.548 46.3476 192.298 46.8376 191.865 46.8252C191.734 46.8252 191.614 46.7752 191.508 46.7059C191.42 46.6487 191.345 46.5797 191.269 46.5107C190.198 45.4855 189.716 44.0638 189.471 42.5675C190.812 42.0892 192.016 41.3596 193.15 40.5167C193.231 42.3471 193.162 44.171 192.667 45.9257Z" fill="#8F060A"/>
<path fill-rule="evenodd" clip-rule="evenodd" d="M180.817 27.9693C178.184 28.9127 175.734 30.6044 172.945 30.7241C170.419 30.8309 168.051 29.6233 165.618 28.9444C163.306 28.2963 157.501 27.5539 155.834 29.2137C155.786 30.157 149.907 30.4793 146.341 29.1926C142.706 28.856 137.461 27.4368 134.692 30.0643C133.55 31.1518 132.818 32.6994 131.445 33.4791C131.314 33.5548 131.182 33.6178 131.051 33.6737C130.015 34.1159 128.841 34.112 127.678 34.1074C127.336 34.106 126.994 34.1039 126.657 34.1146C124.646 34.1771 122.652 34.712 120.86 35.6365C120.823 35.6548 120.785 35.674 120.747 35.699C119.3 36.4477 117.997 37.4603 116.912 38.6809C115.941 39.7684 115.138 41.0198 114.004 41.9376C112.413 43.2214 110.337 43.7056 108.433 44.4544C106.935 45.0452 105.412 45.9445 104.573 47.2657C104.836 48.662 105.136 50.0516 105.506 51.4229C105.838 52.6558 106.227 53.8697 106.684 55.0586C107.135 56.2219 107.65 57.3601 108.251 58.4543C108.652 59.1906 109.097 59.9077 109.58 60.5992C111.316 63.0836 113.547 65.2153 116.191 66.5933C116.912 65.247 118.159 64.191 119.607 63.6995C120.722 63.329 121.938 63.291 123.029 62.8441C123.837 62.5112 124.533 61.9764 125.172 61.3724C125.655 63.549 126.269 65.6873 127.027 67.7816C124.495 68.1907 122.734 71.1844 123.599 73.6064C123.693 73.8767 123.812 74.1781 123.687 74.4294C123.53 74.7315 123.142 74.7755 122.81 74.8196C120.584 75.1091 118.792 77.1475 118.548 79.3483C118.754 79.3982 118.968 79.4556 119.174 79.5174C122.684 80.5365 125.736 82.9769 129.158 84.3988C129.709 84.6251 130.267 84.8331 130.837 85.0021C134.028 85.9896 137.48 86.1285 140.739 85.3792C140.764 85.3732 140.795 85.3666 140.82 85.3607C142.745 84.908 144.593 84.1592 146.423 83.3987C150.126 81.8637 153.812 80.2603 157.672 79.1726C161.527 78.0896 165.594 77.5304 169.549 78.141C171.053 78.3733 172.55 78.7819 173.891 79.4799C174.292 79.6872 174.675 79.9142 175.045 80.1786C176.48 81.1971 177.639 82.6816 178.065 84.3796C178.61 82.0269 179.08 79.6437 179.444 77.2409V77.2285C180.547 70.0403 180.716 62.7118 179.112 55.6495C178.741 54.0263 178.285 52.3911 178.297 50.7372C179.732 50.2279 181.399 50.3793 182.96 50.2904C186.099 50.1146 189.527 48.9449 191.865 46.8256C191.778 46.7692 191.345 46.5797 191.269 46.5104C190.198 45.4854 189.716 44.0635 189.471 42.5674C189.346 41.8192 189.283 41.0448 189.239 40.2968C189.163 39.152 189.108 37.9945 189.089 36.8445C189.026 33.9311 189.208 31.026 190.028 28.2589C190.079 28.0759 190.135 27.9002 190.198 27.718C188.804 27.3028 187.348 27.0956 185.891 27.0956C184.166 27.0956 182.44 27.3863 180.817 27.9693Z" fill="#F00911"/>
<path fill-rule="evenodd" clip-rule="evenodd" d="M123.488 74.6406C123.299 74.7582 123.041 74.789 122.81 74.8197C122.085 74.914 121.407 75.1937 120.812 75.6041C132.588 77.1552 135.903 72.9578 135.903 72.9578C131.952 75.2048 125.723 74.8559 123.488 74.6406Z" fill="#8F060A"/>
<path fill-rule="evenodd" clip-rule="evenodd" d="M127.027 67.7815C127.027 67.7815 138.385 67.1844 144.122 62.2498C144.122 62.2498 140.731 68.8342 124.193 69.6955C124.851 68.7132 125.856 67.9709 127.027 67.7815Z" fill="#8F060A"/>
<path d="M172.725 86.9898C172.776 86.6186 172.838 86.2475 172.895 85.8766C173.227 83.744 173.559 81.6123 173.891 79.4799C174.292 79.6876 174.674 79.9141 175.044 80.178C176.479 81.1971 177.639 82.6815 178.065 84.3796C178.052 84.4361 178.04 84.4986 178.021 84.5559C176.398 85.7823 174.581 86.7383 172.663 87.4049C172.681 87.2667 172.7 87.1277 172.725 86.9898Z" fill="#8F060A"/>
<path d="M131.84 121.129C131.727 121.28 131.633 121.444 131.558 121.607C131 122.777 130.556 123.997 130.186 125.236C129.515 125.004 128.894 124.638 128.369 124.154C129.264 122.877 130.474 121.89 131.84 121.129Z" fill="#D8D8D1"/>
<path d="M158.982 134.878L159.082 134.973C159.019 135.041 158.95 135.111 158.887 135.18L158.794 135.287C158.104 134.677 157.459 134.004 156.882 133.28C157.383 132.494 157.841 131.683 158.23 130.828C158.712 132.129 158.994 133.488 158.982 134.878Z" fill="#D8D8D1"/>
<path d="M99.4456 107.713C99.0319 108.04 98.6621 108.456 98.3428 108.864C98.017 109.286 97.7035 109.714 97.4027 110.154C96.1427 109.689 95.0085 108.877 94.1562 107.833L94.2258 107.777C95.9551 107.582 97.7095 107.563 99.4456 107.713Z" fill="#D8D8D1"/>
<path d="M158.986 13.109C158.843 14.4102 158.706 15.7165 158.798 17.0121C158.625 16.931 158.437 16.8797 158.243 16.8695C157.816 16.844 157.374 17.0329 157.11 17.359C157.1 17.0532 156.892 16.7008 156.612 16.5275C156.174 16.2518 155.62 16.1858 155.229 15.8441C154.949 15.5991 154.781 15.2365 154.492 14.9968C154.024 14.6191 153.332 14.6397 152.783 14.8742C152.229 15.109 151.771 15.5174 151.293 15.8846C150.403 16.5684 149.325 17.13 148.212 17.0174C146.758 16.8695 145.512 15.6093 144.059 15.7623C143.362 15.8388 142.746 16.237 142.121 16.5481C141.612 16.8033 141.023 17.0072 140.469 16.9357C140.346 16.9209 140.225 16.8898 140.103 16.844C139.015 16.4153 138.699 14.8539 137.596 14.4658C136.553 14.0985 135.46 14.9916 134.362 14.8896C133.35 14.798 132.618 13.9049 132.079 13.0374C131.545 12.1699 131.022 11.2054 130.101 10.7767C128.856 10.2002 127.152 10.7463 126.202 9.76148C125.876 9.42453 125.724 8.98096 125.688 8.51609C125.658 8.12371 125.709 7.7153 125.815 7.33742C126.029 6.5415 126.522 5.73545 127.315 5.52631C128.144 5.31215 128.972 5.80692 129.72 6.22483C130.02 6.39356 130.34 6.55703 130.686 6.59758C132.181 6.77644 133.056 4.72487 134.54 4.46491C135.887 4.2301 137.036 5.5571 138.399 5.68426C140.484 5.8834 142.045 3.29125 144.134 3.4492C145.711 3.56725 146.752 5.20489 148.258 5.70453C149.682 6.17415 151.207 5.56198 152.595 5.00087C153.983 4.4345 155.579 3.9237 156.932 4.56692C158.03 5.09236 158.676 6.27616 158.966 7.46496C159.423 9.30713 159.199 11.2054 158.986 13.109Z" fill="#272533"/>
<path d="M172.406 100.525C172.575 113.148 167.687 125.77 159.082 134.972L158.982 134.878C158.994 133.488 158.712 132.129 158.23 130.828C157.641 129.217 156.757 127.689 155.749 126.299C153.787 123.576 151.211 121.154 148.215 119.746C146.912 119.129 145.533 118.708 144.092 118.531C141.898 118.267 139.68 118.588 137.53 119.072C135.575 119.512 133.575 120.141 131.84 121.129C130.474 121.89 129.264 122.878 128.368 124.154C128.205 124.016 128.048 123.858 127.904 123.689L127.885 123.695C127.484 122.254 127.333 120.745 127.447 119.255C129.214 115.45 131.533 111.896 134.453 108.896C137.875 105.38 142.149 102.645 146.862 101.317C150.566 100.273 154.47 100.097 158.324 99.7701C162.022 99.449 165.669 98.9839 169.028 97.468C170.181 96.9521 171.316 96.2796 172.205 95.392C172.268 97.1034 172.381 98.8134 172.406 100.525Z" fill="#002A4B"/>
<path d="M158.23 130.827C157.641 129.217 156.757 127.689 155.748 126.299C153.787 123.576 151.211 121.154 148.216 119.746C146.912 119.128 145.533 118.708 144.092 118.531C141.898 118.267 139.68 118.588 137.53 119.072C135.575 119.512 133.575 120.141 131.84 121.129C130.474 121.89 129.264 122.877 128.368 124.154C128.205 124.016 128.048 123.858 127.904 123.689L127.885 123.695C127.488 122.267 127.336 120.772 127.444 119.294C128.012 118.088 128.731 116.682 129.602 115.208C130.985 112.932 132.597 110.802 134.453 108.896C136.162 107.141 138.083 105.58 140.165 104.291C140.108 104.332 133.144 109.342 131.668 117.273C131.668 117.273 152.34 110.497 158.23 130.827H158.23Z" fill="#000418"/>
<path d="M132.172 166.137C124.852 175.552 112.725 181.508 107.442 192.313C107.655 192.414 107.868 192.527 108.082 192.634C106.22 193.452 104.046 193.464 102.141 192.773C101.84 192.665 101.539 192.534 101.257 192.388C101.213 192.37 101.169 192.345 101.125 192.327C100.906 192.207 100.699 192.087 100.492 191.948C100.386 191.88 100.279 191.804 100.172 191.729C100.066 191.646 99.9594 191.565 99.859 191.483C99.6585 191.319 99.4645 191.144 99.2763 190.949C99.1634 190.836 99.0572 190.716 98.9629 190.584C106.621 180.068 108.883 166.414 115.539 155.306C117.394 159.131 120.534 162.282 124.288 164.237C125.742 164.993 127.284 165.564 128.875 165.929C129.947 166.181 131.094 166.326 132.172 166.137Z" fill="#F00911"/>
<path d="M94.0624 115.953C89.6377 119.877 86.4417 125.179 85.0251 130.94C85.0251 130.953 85.0191 130.96 85.0191 130.972C84.6867 132.336 84.4552 133.752 84.3798 135.167C83.8784 133.89 83.4772 132.563 83.1138 131.262C81.0645 123.871 79.4976 116.078 75.0986 109.84V109.833V109.826C75.1176 109.695 75.1425 109.563 75.1674 109.437C75.2172 109.179 75.2737 108.915 75.3364 108.651C75.6309 107.305 76.0702 105.952 77.0851 105.054C77.5177 104.67 78.0377 104.386 78.5707 104.166C78.7836 104.078 78.9968 104.003 79.2157 103.927C79.2157 103.933 79.2289 103.94 79.2289 103.94C79.3534 104.085 79.5042 104.21 79.6734 104.317C82.1548 106.305 85.2762 107.361 88.0709 108.909C90.8534 110.449 93.5484 112.883 94.0624 115.953Z" fill="#F00911"/>
<path d="M172.725 86.9899C172.7 87.1278 172.681 87.2668 172.663 87.405C172.462 88.7445 172.287 90.0842 172.211 91.4304C172.137 92.7508 172.155 94.072 172.205 95.3925C171.316 96.2794 170.181 96.9525 169.028 97.4683C165.669 98.9838 162.021 99.4494 158.324 99.7698C154.469 100.097 150.565 100.273 146.862 101.317C142.149 102.645 137.875 105.38 134.453 108.896C131.532 111.896 129.214 115.45 127.447 119.255C127.139 119.909 126.851 120.569 126.582 121.236V121.261C126.15 121.299 125.717 121.293 125.285 121.248C124.576 121.173 123.874 120.998 123.191 120.746C122.082 120.343 121.029 119.733 120.083 119.035C118.096 117.563 116.441 115.682 114.568 114.06C112.438 112.224 110.012 110.751 107.411 109.675C104.872 108.626 102.178 107.959 99.4454 107.713C97.7096 107.563 95.9552 107.582 94.2256 107.777C95.6293 103.085 98.3428 98.8896 101.426 95.0912C106.245 89.1412 112.049 83.996 118.516 79.9202C118.735 79.7819 118.955 79.6437 119.174 79.5181C122.683 80.5365 125.736 82.977 129.157 84.3988C129.709 84.6251 130.267 84.8323 130.837 85.0021C134.027 85.9896 137.48 86.1278 140.739 85.3797C140.764 85.3732 140.795 85.3673 140.82 85.3607C148.686 87.9584 157.052 89.0531 165.324 88.5623C167.856 88.4111 170.444 88.1031 172.725 86.9899Z" fill="#002A4B"/>
<path d="M119.725 202.49C119.419 202.987 118.729 203.031 118.153 202.999C111.985 202.691 106.069 200.553 100.335 198.27C99.9905 198.131 99.6398 197.993 99.3014 197.835C98.6117 197.528 97.9602 197.157 97.4213 196.628C97.0009 196.213 96.6567 195.672 96.6567 195.081C96.6567 194.596 96.8823 194.143 97.102 193.716C97.6783 192.596 98.9126 190.515 98.9632 190.583C99.057 190.716 99.1632 190.835 99.2766 190.949C99.464 191.143 99.6587 191.319 99.8588 191.483C99.9656 191.571 100.066 191.653 100.172 191.729C100.279 191.811 100.379 191.886 100.492 191.949C100.699 192.093 100.906 192.213 101.125 192.326C101.169 192.345 101.213 192.37 101.256 192.388C101.551 192.534 101.852 192.653 102.159 192.747C103.82 193.263 105.656 193.1 107.442 192.313C111.66 194.106 115.815 197.389 119.036 200.571C119.562 201.087 120.108 201.861 119.725 202.49Z" fill="#272533"/>
<path d="M158.798 17.0123C159.159 17.1756 159.474 17.4667 159.677 17.8136C159.982 18.3238 160.079 18.9408 160.054 19.5382C159.967 21.4365 158.574 23.1915 156.769 23.7479C156.84 24.9009 156.907 26.0544 156.972 27.2027C157.008 27.7023 157.034 28.1977 157.064 28.6925C156.286 29.9069 155.101 30.8458 153.764 31.3912C152.284 31.9988 150.627 32.1317 149.046 31.8814C148.019 31.7181 146.967 31.3608 146.214 30.6723C146.326 30.1924 146.433 29.7078 146.544 29.2331C146.478 29.2229 146.407 29.2075 146.341 29.1925C144.795 28.8249 143.341 27.9931 142.36 26.7429C142.218 26.5594 142.08 26.3656 141.964 26.1664C141.44 25.3348 141.094 24.3911 140.829 23.4366C140.235 21.3243 139.985 19.0637 140.468 16.936C141.023 17.0076 141.612 16.803 142.121 16.5478C142.747 16.2367 143.361 15.8385 144.058 15.762C145.512 15.6095 146.758 16.8692 148.212 17.0177C149.326 17.1298 150.403 16.5681 151.293 15.885C151.771 15.5171 152.228 15.1093 152.783 14.8744C153.332 14.6396 154.024 14.6193 154.491 14.9967C154.781 15.2363 154.949 15.5988 155.228 15.8438C155.62 16.186 156.174 16.2522 156.611 16.5275C156.891 16.7011 157.1 17.0534 157.11 17.3593C157.374 17.0331 157.817 16.8441 158.244 16.8692C158.437 16.8794 158.625 16.9307 158.798 17.0123Z" fill="#E69E80"/>
</g>
<defs>
<clipPath id="clip0_895_1956">
<rect width="281" height="203" fill="white"/>
</clipPath>
</defs>
</svg>
