<svg width="20" height="20" viewBox="0 0 20 20" fill="none" xmlns="http://www.w3.org/2000/svg">
<path fill-rule="evenodd" clip-rule="evenodd" d="M5.8984 13.9843V11.7578C5.20811 11.7578 4.70368 11.7589 4.12971 12.3328C3.58877 12.8737 3.5547 13.3482 3.5547 14.0235C3.5547 15.285 4.01841 16.5492 4.45258 17.3833C4.68894 17.8374 6.09304 19.8511 6.13282 20H11.5625C11.5994 19.8417 11.7443 19.5988 11.8233 19.4406C12.4512 18.1859 12.9297 16.1891 12.9297 14.7657C12.9297 13.8585 13.0951 12.958 12.4123 12.2752C12.2504 12.1134 12.1656 12.0311 11.9408 11.9263C11.7307 11.8284 11.5421 11.7578 11.25 11.7578H9.41403V8.12502C9.41403 7.62154 8.86283 7.07034 8.35935 7.07034C7.89465 7.07034 7.62626 7.125 7.29782 7.53224C7.04648 7.84387 7.07024 8.09615 7.07034 8.63284L7.07166 13.9076C7.07293 14.9803 5.8984 14.8931 5.8984 13.9843ZM0 4.49222C0 5.57175 0.112772 6.20922 0.65627 7.11716C0.729876 7.24013 0.784585 7.33623 0.869955 7.45037C1.699 8.55844 3.07532 9.41403 4.49222 9.41403C5.19786 9.41403 5.20306 9.41984 5.8984 9.25779C5.8984 8.13177 5.86419 7.53961 6.36092 6.86875C6.89638 6.14544 7.82091 5.74844 8.75955 5.96699C8.93573 6.008 9.04491 6.07929 9.21872 6.0937C9.22505 5.81156 9.41403 5.64465 9.41403 4.49222C9.41403 3.87242 9.18499 3.13352 8.97182 2.70785C8.2118 1.1898 6.67788 0 4.96093 0C3.68926 0 3.00138 0.187418 1.99947 0.866696C1.89615 0.936711 1.77851 1.01915 1.68893 1.10301C1.17411 1.5849 0.778302 2.00368 0.455057 2.68163C0.240709 3.13116 0 3.85163 0 4.49222H0ZM2.7395 3.98165L3.90398 5.14608L6.67457 2.36576L7.51632 3.20278L3.90308 6.82868L1.89775 4.8234L2.7395 3.98165ZM10.586 4.49222C10.586 5.44102 10.6358 5.89126 11.0284 6.74506C11.7004 8.20632 13.3964 9.41403 15.0391 9.41403H15.5078C17.2552 9.41403 18.8076 8.20151 19.5313 6.75782C19.7959 6.23 19.9607 5.6001 20 4.96551V4.38209C19.9809 4.08233 19.9313 3.78833 19.8486 3.51077C19.6531 2.85445 19.5046 2.54783 19.1336 1.99923C18.9235 1.6887 18.3346 1.09791 18.0242 0.882097C17.2525 0.34545 16.4018 0.0540474 15.5519 0H14.97C13.8696 0.0707246 12.8019 0.541466 11.9433 1.39645C11.3103 2.02682 10.586 3.24847 10.586 4.49222ZM12.8936 6.18489L14.4111 4.6537L12.8935 3.12247L13.7818 2.23909L15.293 3.76385L16.8041 2.23909L17.6924 3.12247L16.1749 4.6537L17.6924 6.18489L16.804 7.06831L15.293 5.54359L13.7819 7.06831L12.8936 6.18489Z" fill="white"/>
</svg>
