<svg width="290" height="202" viewBox="0 0 290 202" fill="none" xmlns="http://www.w3.org/2000/svg">
<g clip-path="url(#clip0_895_1789)">
<path d="M274.198 149.277C271.75 139.779 276.754 130.156 281.091 121.359C284.774 113.892 288.124 106.094 289.061 97.8189C289.997 89.5442 288.242 80.6422 282.727 74.4057C272.878 63.2688 255.575 64.1561 240.811 65.8539C226.048 67.5517 208.657 68.1782 199.094 56.7943C193.535 50.1761 192.212 41.1234 189.805 32.8198C185.271 17.1846 173.674 1.40361 157.43 0.52519C146.492 -0.0662464 136.44 6.25097 127.83 13.0281C114.91 23.198 103.122 35.1861 95.2901 49.6483C91.0301 57.5145 88.0033 65.9878 84.0092 73.9924C76.624 88.7929 65.0381 102.518 49.2913 107.552C37.7077 111.255 24.5232 110.088 14.0829 116.327C-1.39884 125.58 -4.03174 148.782 5.32689 164.207C8.12855 168.825 11.7022 172.807 15.8119 176.198C25.5701 184.251 37.9373 188.453 50.5852 188.453H278.937C286.694 188.453 292.082 180.534 289.033 173.396C289.012 173.349 288.992 173.301 288.971 173.254C285.199 164.596 276.555 158.423 274.198 149.277Z" fill="#FEFEFE"/>
<path d="M59.8731 88.3176C55.651 89.8519 50.325 89.1255 47.5948 85.6779C44.115 81.2836 46.0652 74.955 48.1507 69.7553C51.4703 61.479 67.6245 41.6478 75.7885 56.4114C81.4917 66.7251 69.7878 84.7147 59.8731 88.3176Z" fill="#F00911"/>
<path d="M224.29 59.0569C229.382 58.7865 234.739 56.2113 236.622 51.469C238.237 47.4017 236.873 42.5338 233.9 39.324C228.127 33.0911 212.096 30.0721 207.284 39.1521C201.606 49.866 214.68 59.5666 224.29 59.0569Z" fill="#F00911"/>
<path d="M200.121 60.9427C201.575 62.0836 203.02 62.9999 204.802 62.8616C206.902 62.6384 208.422 61.2063 209.729 59.428C210.024 59.0256 210.281 57.425 210.56 56.9964C211.509 55.534 212.408 55.1614 213.368 53.9171L211.327 67.5448C209.3 69.4794 209.858 72.0651 210.296 74.8795L202.956 69.0348L200.121 60.9427Z" fill="#E69E80"/>
<path d="M252.891 117.736C250.825 114.823 250.997 123.06 252.794 120.237L252.891 117.736Z" fill="#E69E80"/>
<path d="M206.998 112.048C212.108 117.826 219.187 126.858 221.951 128.267C224.716 129.674 248.986 137.111 254.352 129.814C256.222 127.275 258.206 121.551 256.252 119.261C254.784 117.349 249.791 118.98 250.677 127.287C250.243 126.959 234.832 117.188 228.896 116.316C227.55 116.121 228.02 116.028 227.74 114.611C226.603 108.849 224.646 98.5413 224.646 98.5413L224.041 95.4367C224.041 95.4367 205.027 94.738 202.951 98.6688C201.373 101.728 202.433 110.24 206.998 112.048Z" fill="#E69E80"/>
<path d="M211.502 100.719C206.568 103.88 220.773 121.538 223.935 123.773C227.096 126.006 251.301 130.841 250.765 129.843L251.925 131.713C243.875 135.534 224.409 129.519 221.951 128.267C219.187 126.858 212.108 117.826 206.998 112.048C205.818 111.581 204.878 110.666 204.152 109.512L205.299 102.428L211.502 100.719Z" fill="#E69177"/>
<path d="M144.193 66.1039C138.659 67.8766 131.941 70.4369 128.406 75.1981L127.621 76.3559C120.267 78.8407 116.249 79.7429 110.271 83.1473L108.548 95.4554L117.694 117.823C124.832 117.382 132.007 116.346 136.406 113.937L139.046 117.384L156.631 119.802L169.03 112.099L169.951 107.941C165.949 102.455 161.112 97.2158 155.51 93.364L146.281 80.2861L143.984 71.3196L144.193 66.1039Z" fill="#002A4B"/>
<path d="M132.399 100.01C132.399 100.01 141.767 117.648 146.877 117.635C146.877 117.635 140.857 118.41 139.047 117.384C137.236 116.358 135.859 112.874 134.989 109.813C134.121 106.755 132.399 100.01 132.399 100.01Z" fill="black" fill-opacity="0.2"/>
<path d="M169.95 107.941C177.827 118.741 182.464 130.509 183.324 134.587C185.893 146.765 187.353 160.041 190.207 172.149C191.419 177.295 194.697 188.914 198.1 190.782C200.084 191.874 208.142 189.796 206.126 193.704C201.737 196.953 197.975 198.65 195.761 200.662C193.964 202.293 190.835 202.032 189.9 195.811C188.661 187.553 163.247 158.316 165.805 146.831C159.787 139.559 148.302 129.051 139.046 117.384H139.047C147.475 120.127 162.78 117.215 169.95 107.941Z" fill="#E69E80"/>
<path d="M171.471 142.995C171.843 148.938 167.278 154.149 192.781 194.935C194.164 197.146 199.455 197.697 202.824 195.968C199.875 197.857 197.395 199.179 195.761 200.662C193.965 202.293 190.835 202.032 189.901 195.811C188.661 187.553 163.247 158.316 165.805 146.831C159.787 139.559 148.303 129.054 139.047 117.386V117.384C143.02 118.675 148.521 118.712 153.979 117.419C159.471 125.397 171.099 137.048 171.471 142.995Z" fill="#E69177"/>
<path d="M117.694 117.823C119.884 112.726 108.401 93.2527 110.271 83.1473L110.27 83.1489C109.329 83.6849 108.34 84.2824 107.282 84.9576C102.272 88.1588 94.1882 95.1461 88.0428 94.5704C83.3628 93.7359 80.7702 86.9267 75.9606 84.4218C68.6878 80.6338 60.6936 79.6091 53.5749 75.051C49.9404 73.6912 50.9731 67.6852 46.7135 69.9325C43.5422 71.6058 41.2495 73.7016 38.7996 76.1738C36.5961 78.3313 33.1298 82.2607 37.749 82.1623C41.4479 82.0841 44.6227 76.7287 52.0552 84.3404C59.7271 92.1968 67.3047 100.478 75.542 107.931C84.8582 116.357 93.1593 118.968 104.775 118.271C108.066 118.077 112.986 118.117 117.694 117.823Z" fill="#E69E80"/>
<path d="M46.3662 76.8315C49.7982 76.4007 82.7563 107.421 87.4676 108.894C93.1651 110.675 109.452 105.215 114.52 103.556C116.729 109.846 118.724 115.427 117.693 117.823C112.986 118.117 108.066 118.077 104.775 118.271C93.1591 118.968 84.858 116.357 75.5418 107.931C67.3045 100.478 59.7269 92.1968 52.055 84.3404C44.6225 76.7286 41.4477 82.0841 37.7488 82.1622C37.5225 82.1674 37.3206 82.16 37.1313 82.146C37.1313 82.146 42.9336 77.2639 46.3662 76.8315Z" fill="#E69177"/>
<path d="M191.38 176.643H191.38C192.969 182.221 195.497 189.354 198.1 190.782C200.084 191.874 208.142 189.796 206.126 193.705C201.737 196.953 197.975 198.65 195.761 200.662C193.964 202.293 190.835 202.032 189.9 195.811C189.523 193.295 186.901 188.836 183.515 183.527C183.517 183.531 183.519 183.533 183.522 183.537C184.971 185.791 192.253 179.54 191.38 176.643Z" fill="#FFFDED"/>
<path d="M195.328 192.713C195.381 189.47 195.263 187.177 196.195 188.784H196.196C196.818 189.726 197.457 190.429 198.1 190.782C200.084 191.874 208.142 189.796 206.126 193.705C201.737 196.953 197.975 198.65 195.761 200.662C193.964 202.293 190.835 202.032 189.9 195.811C189.849 195.47 189.744 195.084 189.614 194.674C189.614 194.672 189.618 194.665 189.618 194.665C190.234 196.257 195.273 195.953 195.328 192.713Z" fill="#002A4B"/>
<path d="M53.3765 85.6976H53.3716C52.9328 85.245 52.4947 84.7891 52.0552 84.3404C44.6227 76.7287 41.4479 82.0841 37.749 82.1623C33.1298 82.2607 36.5961 78.3313 38.7996 76.1738C41.2495 73.7016 43.5422 71.6058 46.7135 69.9325C50.9731 67.6852 49.9404 73.6912 53.5749 75.051C55.5695 76.3284 57.6367 77.3245 59.7327 78.1853C59.7327 78.1857 59.738 78.1909 59.738 78.1909C58.084 77.4782 51.8918 84.1653 53.3765 85.6976Z" fill="#F00911"/>
<path d="M46.3661 76.8315C46.1071 75.2518 48.6753 72.0526 52.7012 74.581L52.6937 74.5575C52.9566 74.7509 53.2404 74.9257 53.5747 75.051C55.5692 76.3284 57.6364 77.3245 59.7325 78.1853C59.7325 78.1857 59.7377 78.1909 59.7377 78.1909C58.0837 77.4782 51.8916 84.1653 53.3762 85.6976H53.3714C52.9325 85.245 52.4945 84.7891 52.055 84.3404C49.6179 81.8452 47.6415 80.7488 45.9521 80.3982C47.7813 80.8822 46.625 78.41 46.3661 76.8315Z" fill="#FFFDED"/>
<path d="M46.3664 76.8315C46.6252 78.41 47.7815 80.8822 45.9524 80.3982C42.4861 79.6778 40.2348 82.1116 37.749 82.1622C33.1298 82.2606 36.5961 78.3313 38.7996 76.1738C41.2495 73.7016 43.5422 71.6057 46.7135 69.9325C50.5806 67.8923 50.0962 72.6454 52.6939 74.5575L52.7014 74.581C48.6756 72.0526 46.1073 75.2518 46.3664 76.8315Z" fill="#002A4B"/>
<path d="M161.267 62.3432C163.272 63.8221 165.317 65.2479 167.431 66.5674C169.369 67.7771 171.368 68.8885 173.422 69.888C174.593 70.4576 175.783 70.9878 176.984 71.4882C177.021 71.5037 177.086 71.4242 177.043 71.4059C174.947 70.5166 172.89 69.5314 170.893 68.4359C168.841 67.3096 166.851 66.0701 164.913 64.7551C163.715 63.9415 162.536 63.0995 161.37 62.2397C161.321 62.2032 161.221 62.3092 161.267 62.3432Z" fill="#002A4B"/>
<path d="M172.54 38.8384C156.821 30.2741 140.322 24.2045 123.895 16.5217C121.259 15.2775 116.065 14.7355 113.069 13.2171C112.27 12.8939 111.473 12.5694 110.616 12.3186C109.273 11.944 108.822 12.7341 110.301 13.4554C109.626 13.1984 109.444 13.1349 108.768 12.8769C108.219 12.756 106.95 12.7307 107.712 13.6183C108.005 13.9326 108.42 14.1035 109.011 14.3459C108.517 14.0822 107.194 13.2908 106.685 13.5848C105.211 14.4349 108.008 15.3669 109.082 15.9009C109.186 15.9505 109.292 16.0027 109.4 16.0511C108.477 15.6621 107.844 15.3028 106.874 15.1962C106.209 15.15 105.612 15.3125 105.999 15.9314C106.388 16.5516 107.358 16.6578 107.913 16.9191C109.263 17.4336 110.61 17.9616 111.966 18.5338C112.827 18.897 113.557 19.462 113.259 20.0992C112.699 20.6669 110.378 20.2149 109.754 20.974C108.416 22.6017 111.42 22.1669 112.373 22.0067C115.323 21.5102 115.249 22.4702 116.097 23.3373C117.097 24.3573 120.004 26.0525 123.672 29.3391C135.378 39.8275 146.774 51.5596 159.253 60.7683L163.007 63.3815L173.884 41.8811L172.54 38.8384Z" fill="#E69E80"/>
<path d="M116.607 20.631C116.607 20.631 121.983 24.8494 123.872 26.4572C125.761 28.0656 126.41 26.7877 126.41 26.7877C126.41 26.7877 140.626 39.6009 148.097 46.2616C155.567 52.921 165.588 56.7749 168.511 51.4242L168.553 52.4183L163.007 63.3815L159.253 60.7683C147.75 52.2795 137.166 41.6461 126.411 31.8181C125.612 32.4555 124.297 31.1766 123.382 30.3578C117.789 24.8588 115.996 24.336 116.097 23.3373C115.249 22.4702 115.323 21.5102 112.374 22.0066C111.686 22.1231 109.924 22.3796 109.511 21.8954C112.833 20.7647 116.284 21.5146 116.607 20.631Z" fill="#E69177"/>
<path d="M211.309 98.9384C208.958 100.045 206.537 101 204.061 101.788C201.716 102.534 199.322 103.126 196.899 103.555C195.56 103.792 194.212 103.978 192.858 104.113C192.791 104.12 192.695 104.274 192.785 104.266C195.189 104.032 197.577 103.64 199.929 103.091C202.39 102.517 204.811 101.773 207.172 100.872C208.574 100.338 209.954 99.7481 211.311 99.1093C211.402 99.0663 211.449 98.8727 211.309 98.9384Z" fill="#002A4B"/>
<path d="M116.092 23.0473C116.201 22.0141 116.622 20.4972 116.962 19.4413C117.526 17.7097 118.161 15.7583 118.778 14.0894C118.981 13.5424 119.522 13.542 120.628 14.0249C121.734 14.5071 125.782 16.5216 127.798 17.343C129.813 18.1644 129.599 19.141 129.599 19.141C128.143 19.7381 125.373 29.4258 125.761 31.1196C125.784 31.2119 125.806 31.2798 125.827 31.3517L126.294 31.7698C126.294 31.7698 126.02 32.6732 123.897 30.8129C121.774 28.9528 118.307 25.5755 117.453 25.0102C116.598 24.4445 116.015 23.7663 116.092 23.0473Z" fill="#FFFDED"/>
<path d="M263.828 95.2286L263.714 95.22L266.681 56.0276L266.795 56.0358L263.828 95.2286Z" fill="#002A4B"/>
<path d="M266.784 92.2757L266.669 92.2675L269.161 59.3591L269.275 59.3678L266.784 92.2757Z" fill="#002A4B"/>
<path d="M269.919 87.4046L269.805 87.3963L271.648 63.0485L271.763 63.0567L269.919 87.4046Z" fill="#002A4B"/>
<path d="M271.516 83.5495L271.401 83.5409L272.736 65.8982L272.851 65.9068L271.516 83.5495Z" fill="#002A4B"/>
<path d="M261.08 96.8922L260.966 96.8837L263.978 54.793L264.092 54.8012L261.08 96.8922Z" fill="#002A4B"/>
<path d="M258.115 98.0089L258.001 97.9999L261.458 53.9115L261.573 53.9205L258.115 98.0089Z" fill="#002A4B"/>
<path d="M255.495 97.1576L255.38 97.1489L258.614 53.2535L258.729 53.2618L255.495 97.1576Z" fill="#002A4B"/>
<path d="M252.731 97.6478L252.616 97.6394L255.846 53.3829L255.96 53.3914L252.731 97.6478Z" fill="#002A4B"/>
<path d="M250.101 96.3185L249.986 96.3101L253.215 53.1782L253.33 53.1865L250.101 96.3185Z" fill="#002A4B"/>
<path d="M247.596 93.4718L247.481 93.4628L250.508 54.1917L250.623 54.2007L247.596 93.4718Z" fill="#002A4B"/>
<path d="M245.091 89.9269L244.977 89.9184L247.358 56.7954L247.472 56.804L245.091 89.9269Z" fill="#002A4B"/>
<path d="M242.78 85.6151L242.665 85.6067L244.555 59.944L244.669 59.9524L242.78 85.6151Z" fill="#002A4B"/>
<path d="M262.32 95.2633L262.205 95.2549L265.173 56.0619L265.288 56.0701L262.32 95.2633Z" fill="#002A4B"/>
<path d="M265.276 92.31L265.161 92.3018L267.737 57.5466L267.852 57.5551L265.276 92.31Z" fill="#002A4B"/>
<path d="M268.453 89.4485L268.338 89.44L270.376 60.9706L270.491 60.9788L268.453 89.4485Z" fill="#002A4B"/>
<path d="M259.571 96.9252L259.457 96.9168L262.47 54.8254L262.584 54.8339L259.571 96.9252Z" fill="#002A4B"/>
<path d="M256.607 98.0426L256.493 98.0338L259.951 53.9446L260.066 53.9536L256.607 98.0426Z" fill="#002A4B"/>
<path d="M253.988 97.1918L253.873 97.1833L257.105 53.2861L257.219 53.2946L253.988 97.1918Z" fill="#002A4B"/>
<path d="M251.221 97.6803L251.106 97.6719L254.337 53.4164L254.452 53.4248L251.221 97.6803Z" fill="#002A4B"/>
<path d="M248.591 96.3511L248.477 96.3428L251.705 53.2124L251.82 53.2208L248.591 96.3511Z" fill="#002A4B"/>
<path d="M246.202 92.0186L246.087 92.0093L249 54.2263L249.114 54.2354L246.202 92.0186Z" fill="#002A4B"/>
<path d="M243.741 87.7601L243.627 87.7517L245.849 56.8293L245.964 56.8378L243.741 87.7601Z" fill="#002A4B"/>
<path d="M241.517 82.3123L241.403 82.3036L243.045 59.9789L243.16 59.9871L241.517 82.3123Z" fill="#002A4B"/>
<path d="M247.733 95.4307C249.011 96.8369 252.335 102.854 252.488 104.554C252.869 108.73 252.57 111.173 252.329 116.828C252.217 117.878 252.12 119.786 253.454 120.325C255.092 121.025 255.629 119.942 255.737 118.432C256.04 114.268 256.325 108.876 256.521 104.909C256.591 103.462 260.835 98.7315 262.131 97.7982C272.958 89.9899 277.301 72.9656 272.402 62.3741C268.074 52.7332 256.884 48.2556 248.667 53.784C236.145 62.6804 237.707 84.4011 247.733 95.4307ZM251.434 98.3222C251.434 98.3222 254.338 100.864 257.548 99.4864C257.453 99.6788 254.308 103.328 254.308 103.328L251.434 98.3222ZM249.54 56.0188C256.892 51.0718 266.904 55.0783 270.775 63.7026C275.625 74.1874 270.201 91.9218 259.888 96.2015C257.93 97.0128 254.659 98.0659 251.833 95.8203C240.412 86.7405 237.187 64.7927 249.54 56.0188Z" fill="#002A4B"/>
<path d="M254.352 129.814C254.008 130.222 250.756 128.282 250.677 127.287L250.234 127.056C250.234 127.056 249.874 129.178 251.932 131.724C251.932 131.724 253.528 131.132 254.352 129.814Z" fill="#FFFDED"/>
<path d="M136.405 113.937C133.955 108.285 129.485 87.2401 129.484 87.2391C132.626 104.077 119.407 101.5 114.52 103.556C114.52 103.556 119.196 115.265 117.693 117.823C117.693 117.823 133.69 115.303 136.405 113.937Z" fill="black" fill-opacity="0.501961"/>
<path d="M142.281 71.2278C142.554 85.0357 153.128 97.5639 169.95 107.941L160.9 97.6845C160.9 97.6845 143.167 87.7629 142.281 71.2278Z" fill="#B1B3C1" fill-opacity="0.501961"/>
<path d="M191.164 104.351C194.973 103.769 201.311 111.124 206.998 112.048C201.307 104.434 223.26 90.6146 224.646 98.5413C220.777 76.4459 203.445 59.2346 187.769 48.4233C182.636 44.8835 178.442 42.3061 173.204 39.4507L172.54 38.8384C172.997 43.5879 163.911 63.178 160.263 61.52C154.415 59.1245 140.856 63.5401 142.411 72.6468C145.497 90.713 165.875 106.829 191.164 104.351Z" fill="#F00911"/>
<path d="M211.405 70.2227C211.405 70.2227 211.107 72.1703 205.366 72.3738C205.366 72.3738 206.081 64.0792 204.046 61.9209L209.178 65.0891L211.405 70.2227Z" fill="#E69E80"/>
<path d="M160.681 61.6162C158.046 60.9742 152.973 64.0735 151.99 70.2526C151.99 70.2526 151.676 63.0527 154.898 60.9573C154.898 60.9573 158.882 60.9476 160.681 61.6162Z" fill="#A90D0F"/>
<path d="M160.681 61.6162C163.738 63.2809 175.272 74.6373 175.272 74.6373L163.28 59.9359C163.28 59.9359 162.338 61.5921 160.681 61.6162Z" fill="#A90D0F"/>
<path d="M178.537 89.8469C193.818 94.6139 201.847 97.3793 204.297 100.139C206.159 102.236 208.439 103.794 210.627 101.505L210.627 101.508C206.985 104.79 204.664 108.957 206.998 112.083C201.312 111.157 194.974 103.803 191.165 104.385C165.877 106.864 145.499 90.7468 142.412 72.682C140.857 63.5745 154.418 59.1581 160.265 61.555C160.394 61.6132 160.53 61.6393 160.672 61.6468L160.683 61.6498C153.816 66.5257 163.257 85.0787 178.537 89.8469Z" fill="#8F060A" fill-opacity="0.501961"/>
<path d="M211.327 67.5449L210.617 68.4062L211.244 69.8528C210.814 70.2002 209.535 71.0541 208.695 69.5182C207.137 66.6699 209.038 62.4097 210.234 60.0801C210.402 59.753 210.205 57.6031 210.205 57.6019L211.388 56.1863C211.388 56.1863 212.386 57.1119 212.451 57.5214C212.516 57.9325 212.728 62.915 212.688 63.1024C212.647 63.2899 211.327 67.5449 211.327 67.5449Z" fill="#D98364"/>
<path d="M218.131 64.3661C216.074 67.6751 212.77 69.9517 211.281 67.9934C210.761 67.3104 209.994 65.171 210.064 63.1959C210.084 62.6145 210.714 61.097 210.709 60.5333C209.917 60.562 209.948 59.571 210.023 58.9952C210.519 55.2399 212.588 53.2728 214.925 52.9854C218.092 52.5952 220.614 55.5626 220.607 58.8737C220.604 60.2146 218.917 63.1005 218.131 64.3661Z" fill="#E69E80"/>
<path d="M218.923 62.8802C219.402 62.1189 220.031 60.3833 219.867 59.4951C219.618 58.1636 216.486 55.4452 215.293 55.935C214.415 56.3375 211.914 60.304 211.518 60.016C211.122 59.7276 212.199 56.4955 211.073 57.057C210.324 57.4559 210.316 58.7962 209.767 59.4071C209.228 55.294 214.224 49.6122 217.981 52.7101C219.766 54.1366 221.871 57.041 220.766 59.6124C220.3 60.6707 219.705 61.7355 219.108 62.7248L218.923 62.8802Z" fill="#002A4B"/>
<path d="M202.223 149.745C202.346 152.655 204.801 154.925 207.708 154.819C210.614 154.71 212.87 152.265 212.749 149.356C212.626 146.448 210.171 144.176 207.264 144.283C204.359 144.391 202.1 146.838 202.223 149.745Z" fill="#D6C71B"/>
</g>
<defs>
<clipPath id="clip0_895_1789">
<rect width="290" height="202" fill="white"/>
</clipPath>
</defs>
</svg>
