<svg width="20" height="20" viewBox="0 0 20 20" fill="none" xmlns="http://www.w3.org/2000/svg">
<path fill-rule="evenodd" clip-rule="evenodd" d="M1.67969 7.89063C1.67969 6.22189 2.37819 4.63284 3.50551 3.50551C3.64655 3.36447 3.75345 3.2931 3.89603 3.15384C4.78554 2.28502 6.53114 1.67969 7.89063 1.67969C8.35001 1.67969 8.83654 1.73438 9.2346 1.82008C11.0379 2.20831 12.7169 3.47314 13.4899 5.14295C13.7576 5.72142 13.9625 6.16826 14.0564 6.84204C14.2411 8.16661 14.1494 9.38125 13.5553 10.5865C13.2602 11.1851 12.805 11.8559 12.3305 12.3305L11.9627 12.6658C11.0695 13.4601 9.48595 14.1406 8.24219 14.1406C7.33475 14.1406 7.15367 14.1487 6.26536 13.93C6.025 13.8708 5.91937 13.8147 5.70787 13.7453C5.49295 13.6746 5.37334 13.5994 5.16949 13.5024L4.68525 13.2444C3.94576 12.8041 3.21245 12.1204 2.74141 11.3992C2.28561 10.7014 2.01294 10.0722 1.8273 9.26645C1.74199 8.89615 1.67969 8.35772 1.67969 7.89063ZM7.48945 0H8.45769C8.79863 0.022296 9.13681 0.0685765 9.46871 0.140654C9.92601 0.239955 10.6591 0.451982 11.0682 0.650598C11.5733 0.895854 11.4689 0.816261 11.9944 1.13063C12.8172 1.62292 13.4334 2.18054 14.051 2.90215L14.5002 3.50756C14.9863 4.27989 15.123 4.55453 15.4152 5.36603C15.9252 6.78212 15.9989 8.73008 15.5129 10.1614C15.2014 11.0788 14.9473 11.6904 14.3749 12.4999C14.2778 12.6372 14.1842 12.7345 14.1016 12.8906C14.231 13.084 18.8685 17.6771 19.4043 18.2129C19.6184 18.427 20 18.7128 20 19.1016C20 19.6341 19.6619 20 19.2188 20C18.6849 20 18.5446 19.736 18.1934 19.3848C17.6544 18.8458 13.0795 14.228 12.8906 14.1016C12.7356 14.1836 12.6249 14.2808 12.478 14.3921C11.5638 15.0842 10.1337 15.6176 8.97289 15.7698C7.29968 15.9891 5.80136 15.712 4.34895 14.987C4.16789 14.8966 4.06183 14.8395 3.89364 14.7392C2.79317 14.0825 2.17176 13.4404 1.37228 12.3777C1.12442 12.0483 0.910911 11.6299 0.741664 11.2505C0.138343 9.89817 0 9.16656 0 7.61719C0 6.14323 0.670029 4.39054 1.46201 3.33701C1.59583 3.15902 1.72474 2.9608 1.86546 2.80296C2.096 2.54439 2.3222 2.28507 2.58394 2.07613C2.67938 1.99993 2.72907 1.92759 2.82384 1.84729C4.07584 0.786547 5.77613 0.109432 7.48945 0Z" fill="white"/>
</svg>
