<svg width="67" height="16" viewBox="0 0 67 16" fill="none" xmlns="http://www.w3.org/2000/svg">
<path d="M27.7456 11.0786C28.5016 12.3979 29.8357 13.1983 31.4366 13.1983C33.3192 13.1983 34.7126 12.0717 34.7126 10.367C34.7126 9.0774 33.9566 8.30657 32.3705 7.58022L31.2736 7.07622C30.31 6.58704 29.9691 6.45363 29.9098 5.68281C29.9098 4.91198 30.562 4.49692 31.3921 4.49692C32.2223 4.49692 32.9338 4.91198 33.4526 5.68281L34.5496 4.83787C33.9418 3.7854 32.7707 3.08869 31.3921 3.08869C29.7023 3.08869 28.3089 4.14116 28.3089 5.7421C28.3089 7.04657 29.1686 7.80257 30.5917 8.45481L31.6738 8.95881C32.6966 9.43316 33.1117 9.72963 33.1117 10.4263C33.1117 11.2565 32.4298 11.7901 31.4218 11.7901C30.2952 11.7901 29.5096 11.1823 28.8573 10.2336L27.7456 11.0786ZM42.9781 8.48445C42.9781 6.76492 41.9405 5.59387 40.2802 5.59387C39.4057 5.59387 38.6645 5.90516 38.1753 6.48328V1.91763H36.6188V13.0353H38.1753V8.70681C38.1753 7.71363 38.872 7.01692 39.8355 7.01692C40.7991 7.01692 41.4217 7.69881 41.4217 8.70681V13.0353H42.9781V8.48445ZM50.9264 8.63269C50.9264 6.67598 49.7406 5.59387 47.9469 5.59387C46.6869 5.59387 45.6048 6.09787 44.8784 7.15034L45.7827 8.0694C46.3904 7.34304 46.9834 6.98728 47.7987 6.98728C48.7918 6.98728 49.3551 7.53575 49.3551 8.54375V9.0181H47.2947C45.6493 9.0181 44.6116 9.8334 44.6116 11.0934C44.6116 12.3534 45.6196 13.1983 47.1464 13.1983C48.1396 13.1983 48.9401 12.8574 49.4737 12.22V13.0353H50.9264V8.63269ZM49.3551 10.2781C49.3551 11.2713 48.525 11.9976 47.4726 11.9976C46.7166 11.9976 46.1977 11.6419 46.1977 11.0341C46.1977 10.4412 46.6573 10.1447 47.4874 10.1447H49.3551V10.2781ZM57.2581 5.75692C57.0802 5.71245 56.8875 5.68281 56.6651 5.68281C55.835 5.68281 55.0642 6.0534 54.5453 6.70563V5.75692H53.0926V13.0353H54.6491V9.15151C54.6491 7.86187 55.5533 7.13551 56.7837 7.13551H57.2581V5.75692ZM65.0587 9.90751C65.1328 9.56657 65.1773 9.24045 65.1773 8.92916C65.1773 7.03175 63.7394 5.59387 61.8124 5.59387C59.7519 5.5494 58.0027 7.3134 58.0472 9.40351C58.0472 11.5529 59.7371 13.1983 61.9606 13.1983C63.0724 13.1983 64.0359 12.8129 64.866 12.0273L64.1248 10.96C63.4726 11.5381 62.7611 11.8197 62.0051 11.8197C60.7599 11.8197 59.826 11.0934 59.6333 9.90751H65.0587ZM59.6629 8.69198C59.9001 7.60987 60.7302 6.91316 61.7531 6.91316C62.7759 6.91316 63.606 7.58022 63.6208 8.69198H59.6629Z" fill="black"/>
<path fill-rule="evenodd" clip-rule="evenodd" d="M10.402 1.275V3.2727C9.81766 3.2727 9.43655 3.30793 8.90759 3.42857C8.45397 3.53203 8.20826 3.6284 7.80461 3.80215C7.34727 3.99904 6.59837 4.45823 6.23956 4.81384C5.83797 5.21185 5.7214 5.28257 5.36409 5.79132C5.10887 6.1547 5.01472 6.31829 4.81423 6.718C4.18519 7.97206 4.23518 8.91303 4.23518 10.2791C4.23518 10.539 4.61028 10.813 4.93091 10.6274C5.2648 10.4342 5.35434 9.57566 6.62965 8.62031C7.30474 8.11462 8.39544 7.61553 9.56239 7.61553H10.402V9.61324C10.402 9.87612 10.6024 10.0765 10.8942 10.0765C11.2064 10.0765 11.3763 9.76604 11.538 9.59117C11.7181 9.39642 11.9126 9.2156 12.1032 9.0272L12.9279 8.17263C12.9863 8.10627 12.9926 8.08081 13.0578 8.01305L14.4468 6.59367C14.745 6.23692 15.3528 5.75342 15.3528 5.50202C15.3528 5.13675 15.1642 5.03834 14.8679 4.74203L13.2031 3.01938C13.1542 2.9705 13.1186 2.93934 13.0725 2.88945L11.5397 1.29541C11.3036 1.01305 11.188 0.811768 10.8073 0.811768C10.5959 0.811768 10.402 1.05447 10.402 1.275V1.275ZM0.529297 5.00984V13.8982C0.529297 14.7725 1.39213 15.6353 2.26643 15.6353H13.6157C14.49 15.6353 15.3528 14.7725 15.3528 13.8982V8.80257C15.3528 8.18696 14.4184 7.97302 14.1614 8.59556C14.0578 8.84653 14.1079 10.9243 14.1079 11.2925C14.1079 11.9005 14.1079 12.5085 14.1079 13.1165C14.1079 13.3942 14.1574 13.7807 14.0688 14.0038C13.9903 14.2013 13.79 14.3904 13.5288 14.3904H2.35328C2.0536 14.3904 1.77424 14.111 1.77424 13.8113V5.15459C1.77424 3.88399 4.20385 4.97248 4.71673 4.30434C5.08173 3.82885 4.7184 3.2727 4.20622 3.2727H2.35328C1.37859 3.2727 0.529297 4.14535 0.529297 5.00984V5.00984Z" fill="black"/>
</svg>
