<svg width="20" height="17" viewBox="0 0 20 17" fill="none" xmlns="http://www.w3.org/2000/svg">
<path fill-rule="evenodd" clip-rule="evenodd" d="M6.64065 1.44539V5.00009H1.01561C0.436915 5.00009 0 5.32986 0 5.8204V10.8985C0 11.3845 0.437434 11.7188 1.01561 11.7188H6.64065V15.2735C6.64065 16.1596 7.45684 16.6721 8.1544 15.9669L15.0879 9.03329C15.8789 8.24762 15.1757 7.77352 14.6191 7.21689L8.17387 0.771451C7.42131 0.013937 6.64065 0.596081 6.64065 1.44539ZM11.6406 0.703136L11.6797 1.52353C11.8105 1.59275 11.8799 1.65487 12.0573 1.69271C12.176 1.71799 12.3991 1.71927 12.5781 1.71884L15.8984 1.71875C16.3419 1.71875 16.5478 1.69219 16.9004 1.81054C17.2243 1.91939 17.3579 2.01544 17.6014 2.20333C17.7679 2.33183 17.99 2.62607 18.0867 2.81179C18.2087 3.04603 18.3203 3.35533 18.3203 3.71099V13.0079C18.3203 13.5636 18.1073 13.9174 17.8296 14.2749C17.7082 14.4313 17.6866 14.4512 17.5339 14.5653C16.9136 15.0288 16.6526 15.0001 15.625 15.0001L12.1131 15.0038C11.5629 15.0591 11.6406 15.5621 11.6406 16.0938C11.6406 16.5375 11.8219 16.7189 12.2657 16.7189C13.356 16.7189 15.7663 16.7712 16.7524 16.6743C17.365 16.6141 17.9902 16.3318 18.4714 15.9715C18.9391 15.6212 19.3142 15.1966 19.5966 14.6749C19.8065 14.2869 20 13.7062 20 13.1251V3.5547C20 2.81495 19.6499 1.99876 19.2246 1.4786C18.9176 1.10311 18.6251 0.835987 18.2195 0.569671C17.4985 0.0961892 16.7134 0 15.8594 0H12.2266C11.7504 0 11.6406 0.231827 11.6406 0.703136Z" fill="white"/>
</svg>
