<svg width="251" height="217" viewBox="0 0 251 217" fill="none" xmlns="http://www.w3.org/2000/svg">
<path d="M236.628 149.467C234.501 141.197 238.849 132.818 242.618 125.159C245.818 118.657 248.729 111.868 249.543 104.663C250.357 97.458 248.832 89.7071 244.039 84.2772C235.481 74.5801 220.445 75.3528 207.616 76.8311C194.787 78.3093 179.675 78.8548 171.365 68.9428C166.534 63.1804 165.385 55.2983 163.293 48.0683C159.354 34.455 149.277 20.7144 135.161 19.9497C125.656 19.4347 116.921 24.935 109.44 30.8359C98.2128 39.6907 87.9695 50.1287 81.1635 62.7209C77.4617 69.5701 74.8315 76.9476 71.3607 83.9173C64.9434 96.8039 54.8755 108.754 41.192 113.137C31.1265 116.362 19.6695 115.345 10.5972 120.778C-2.85569 128.834 -5.14361 149.036 2.98857 162.467C5.42325 166.488 8.5286 169.954 12.0999 172.907C20.5792 179.919 31.3259 183.577 42.3166 183.577H240.746C247.486 183.577 252.168 176.682 249.519 170.468C249.501 170.426 249.483 170.385 249.465 170.344C246.188 162.805 238.676 157.43 236.628 149.467Z" fill="#FEFEFE"/>
<path d="M49.1092 97.4292C46.4949 98.3813 43.1967 97.9306 41.5059 95.7914C39.351 93.0648 40.5588 89.138 41.8502 85.9117C43.9058 80.7765 53.9093 68.4714 58.9649 77.632C62.4965 84.0316 55.2489 95.1937 49.1092 97.4292Z" fill="#E61017"/>
<path d="M195.524 71.761C199.949 71.5256 204.603 69.2834 206.24 65.1542C207.643 61.6127 206.459 57.3745 203.875 54.5795C198.859 49.1527 184.928 46.5241 180.746 54.4301C175.813 63.7585 187.173 72.2048 195.524 71.761Z" fill="#E61017"/>
<path d="M97.9524 208.928C91.1388 211.039 83.1539 206.065 81.4146 198.696C78.1305 184.802 73.3477 165.52 67.573 144.845C66.1429 144.119 60.414 144.62 61.1429 142.828C61.8675 141.399 65.9906 140.168 67.6054 139.641C70.4738 138.761 72.4368 139.975 72.2417 142.486C85.2002 162.152 101.401 172.877 100.627 181.835L97.9524 208.928Z" fill="#E69E80"/>
<path d="M80.4771 153.553C78.5983 151.232 70.0469 153.317 70.698 156.351L67.5728 144.845L71.3968 141.279L72.2414 142.486L80.4771 153.553Z" fill="#FFFDED"/>
<path d="M69.4343 143.74C69.3937 143.981 69.1771 145.74 67.7192 145.381C67.6708 145.2 67.623 145.024 67.573 144.845C66.1429 144.119 60.414 144.62 61.1429 142.828C61.8675 141.399 65.9906 140.168 67.6054 139.641C70.4738 138.761 72.4368 139.975 72.2417 142.486C71.6077 141.539 69.6455 142.435 69.4343 143.74Z" fill="#002A4B"/>
<path d="M67.573 144.845C66.1666 144.129 60.6098 144.599 61.126 142.907C63.2924 142.566 66.5218 142.122 67.9446 142.244C70.1811 142.44 76.7817 160.158 82.0003 169.882C87.22 179.607 99.6548 177.102 98.4709 175.282L98.7803 175.411C100.104 177.698 100.802 179.812 100.627 181.835L97.9524 208.928C92.9273 210.78 83.9995 207.852 81.4146 198.696C78.3475 186.113 72.1081 161.082 67.573 144.845Z" fill="#D05A3B"/>
<path d="M112.177 167.023C112.156 170.254 110.971 186.075 105.259 183.527L113.209 201.846L123.471 192.401L116.149 171.358L112.177 167.023Z" fill="#DC8869"/>
<path d="M161.746 113.335C162.126 109.054 162.638 106.99 162.315 104.056C164.694 103.295 179.213 101.837 182.331 100.589C195.272 107.809 210.629 100.455 224.476 97.6976C227.218 98.6341 225.921 100.376 227.834 101.153C229.671 101.898 232.481 100.722 231.881 99.1883C231.436 97.7086 231.051 97.3632 230.071 96.92C230.678 97.3031 231.155 97.6662 231.479 97.7427C233.509 98.226 232.267 95.1907 227.113 95.2697C226.443 95.2805 223.982 94.5473 223.982 94.5473C207.158 87.095 166.599 83.8666 144.619 78.9973L133.292 80.9676C133.292 80.9676 139.973 112.371 140.038 112.777C140.078 113.032 149.589 117.581 155.887 118.397C159.536 118.868 161.494 115.839 161.494 115.839L161.746 113.335Z" fill="#E69E80"/>
<path d="M162.315 104.056C162.315 104.056 155.793 104.935 151.421 102.798C151.421 102.798 157.317 111.315 157.61 121.861C157.669 126.482 156.268 140.097 153.199 145.65C153.199 145.65 155.678 142.97 157.282 136.99C158.887 131.011 160.434 125.161 161.142 118.695C161.851 112.23 162.685 106.728 162.315 104.056Z" fill="#D99273"/>
<path d="M151.332 102.754C155.084 103.944 180.752 91.9916 188.158 95.6285C195.562 99.2634 222.698 95.9389 225.38 96.4025C228.062 96.8685 230.763 101.029 231.897 99.9674L231.896 99.9678C231.502 101.082 229.342 101.764 227.834 101.153C225.921 100.376 227.218 98.6341 224.476 97.6976C210.629 100.455 195.272 107.809 182.331 100.589C179.213 101.837 164.694 103.295 162.315 104.056C162.345 104.33 162.362 104.59 162.377 104.85C160.992 104.509 159.714 104.272 158.751 104.246C154.725 104.143 151.332 102.754 151.332 102.754Z" fill="#D99273"/>
<path d="M72.2474 20.8165C71.9929 63.5283 70.5691 66.9742 104.568 91.5981C104.568 91.5981 115.206 84.1285 115.571 83.0542C115.936 81.9797 121.905 72.1015 121.905 72.1015C110.778 66.0519 101.315 59.0934 88.2337 57.9524C86.7315 57.8217 86.4383 57.9464 86.5629 56.8455C88.0529 43.7224 78.5914 31.5189 74.7075 21.1006C74.5753 20.8313 74.578 20.4274 74.5797 20.158C74.8525 19.4872 76.3276 19.4964 76.2008 18.5536C75.8064 17.2047 74.3179 19.0795 74.0454 19.4815C73.6054 17.8218 74.1071 16.1896 73.6744 14.6343C72.1894 15.9706 72.1703 18.8422 72.2474 20.8165Z" fill="#E69E80"/>
<path d="M144.958 79.0723C139.221 79.0757 136.401 88.8198 140.127 99.1813C145.972 115.435 160.459 120.345 161.746 113.335C160.334 129.231 154.943 149.299 151.028 145.882L117.177 140.494C116.244 135.859 116.541 137.027 114.96 132.584C114.641 131.834 114.435 129.333 114.435 129.333C114.435 129.333 113.426 128.896 113.138 128.179C108.511 116.667 104.212 101.512 104.609 88.6632C104.845 81.0109 111.674 71.0531 123.408 72.1803C125.166 73.1355 123.615 72.3216 125.457 73.1149C131.404 75.6777 137.161 77.3457 144.958 79.0723Z" fill="#F00911"/>
<path d="M156.967 116.396C157.317 118.127 157.557 119.96 157.609 121.861C157.669 126.48 156.269 140.083 153.203 145.641C153.209 145.636 153.215 145.631 153.221 145.626C153.36 145.469 154.346 144.315 155.441 142.032C156.072 140.614 156.693 138.899 157.287 136.97C158.077 134.028 158.851 131.116 159.519 128.148C160.163 125.068 160.718 121.835 161.147 118.641C161.324 117.036 161.508 115.49 161.678 114.033C161.701 113.801 161.725 113.566 161.745 113.335C161.322 115.64 159.468 116.647 156.967 116.396Z" fill="#A90D0F"/>
<path d="M131.324 74.1551C130.84 72.5816 126.376 72.3485 126.059 67.3031C125.885 64.5396 128.522 62.7121 131.311 63.1154C137.526 64.0127 136.624 67.7448 136.635 70.9787C136.645 73.7931 136.61 74.4418 135.4 74.7969C134.177 75.1559 131.324 74.1551 131.324 74.1551Z" fill="#E69E80"/>
<path d="M126.729 70.9152C127.384 72.5223 127.598 72.9075 127.675 74.033C130.577 75.1844 133.5 76.1503 136.705 77.0419L136.81 77.0204L134.093 76.2113C133.893 76.0081 133.894 75.8057 133.829 75.6029C133.757 75.2512 133.746 74.9949 133.753 74.7827C132.56 74.5887 131.323 74.1553 131.323 74.1553C131.018 73.1614 129.125 72.7018 127.692 71.2271L126.729 70.9152Z" fill="#E69E80"/>
<path d="M98.0606 209.021C89.7557 202.774 79.4536 190.505 79.4536 190.505C79.4536 190.505 93.2249 206.206 93.028 209.254C93.028 209.254 95.1258 209.812 98.0606 209.021Z" fill="#E69E80"/>
<path d="M66.4529 176.245C78.5509 187.806 89.0298 204.566 104.01 212.916C118.239 221.045 128.867 216.141 136.948 206.455L124.343 195.995L118.086 194.699C118.086 194.699 117.018 196.747 116.316 196.549C114.636 196.073 115.337 187.39 107.058 184.22C93.084 178.869 82.4046 176.597 68.1196 171.481C64.9136 169.057 62.7577 170.3 61.8455 172.985C61.2998 174.419 58.6822 178.888 60.2865 179.615C61.5382 179.983 65.3768 176.597 66.4529 176.245Z" fill="#E69E80"/>
<path d="M111.728 165.318C111.728 165.318 111.042 176.771 108.341 179.179C105.642 181.584 117.943 190.276 117.943 190.276L119.9 176.846L115.563 169.264L111.728 165.318Z" fill="#002A4B"/>
<path d="M117.609 190.036L111.728 165.318C111.728 165.318 115.602 180.899 113.03 186.421L117.609 190.036Z" fill="#003C69"/>
<path d="M116.327 137.889C123.445 131.793 151.404 140.212 153.093 149.695C158.441 181.317 146.271 209.415 146.271 209.415C135.83 208.3 123.744 204.39 118.086 194.699L117.744 192.545C117.771 188.236 116.368 183.561 114.962 179.244C111.471 165.583 106.918 149.403 116.327 137.889Z" fill="#002A4B"/>
<path d="M151.357 146.262C154.825 151.906 145.666 194.649 137.138 197.422C128.612 200.194 118.086 194.699 118.086 194.699C118.086 194.699 122.665 206.797 146.272 209.415C146.272 209.415 153.557 191.079 154.324 171.56C155.093 152.041 151.357 146.262 151.357 146.262Z" fill="#003C69"/>
<path d="M104.609 88.6633C104.701 85.6962 105.787 82.385 107.763 79.5052L107.764 79.4996C98.721 76.5894 85.7707 65.3207 82.0001 61.1911C78.229 57.0638 73.1848 28.9142 72.2351 20.3531C72.2399 20.5089 72.2426 20.6695 72.2474 20.8165C71.9929 63.5283 70.5691 66.9742 104.568 91.5981C104.568 91.5981 104.577 91.5914 104.581 91.5893L104.602 91.5076C104.583 90.5498 104.58 89.599 104.609 88.6633Z" fill="#D99273"/>
<path d="M139.712 83.1576C138.818 86.0063 139.604 102.863 149.832 113.154C149.832 113.154 143.984 108.805 140.754 100.8C137.522 92.7948 138.474 86.6799 139.712 83.1576Z" fill="#D99273"/>
<path d="M114.96 132.584C114.999 126.392 136.617 124.124 140.979 112.469C140.979 112.469 138.079 118.444 128.401 120.457C118.722 122.466 114.051 125.406 113.138 128.179L114.435 129.333L114.96 132.584Z" fill="#A90D0F"/>
<path d="M136.261 66.1305C135.749 65.7232 135.778 66.9416 134.779 66.8385C133.34 66.6894 132.374 65.1186 131.374 66.0994C130.659 66.8019 130.672 67.3773 130.685 67.8896C130.716 69.0339 130.223 69.0769 129.966 68.6233C129.302 67.4533 127.804 69.4405 129.544 70.7277C128.045 69.8939 127.738 71.7139 127.173 71.9064C123.819 66.4191 127.549 60.707 133.687 62.4798C135.027 62.8477 136.717 64.6079 136.261 66.1305Z" fill="#002A4B"/>
<path d="M80.7799 175.632C80.7799 175.632 72.7281 178.798 75.2799 185.723L66.4529 176.245L64.9824 172.172L66.6498 170.693L68.1195 171.481L80.7799 175.632Z" fill="#FFFDED"/>
<path d="M60.2865 179.615C58.6822 178.888 61.2998 174.419 61.8455 172.985C62.7577 170.3 64.9136 169.057 68.1196 171.481C66.6948 170.554 64.9767 172.915 65.7783 173.997C66.5752 175.079 67.7084 175.537 66.4529 176.245C65.4675 176.801 62.1827 179.022 61.6289 179.292C61.0736 179.564 60.6027 179.706 60.2865 179.615Z" fill="#002A4B"/>
<path d="M104.01 212.916C89.0298 204.566 78.5509 187.806 66.4529 176.245C65.3768 176.597 61.5382 179.983 60.2865 179.615C58.6822 178.888 61.2998 174.419 61.8455 172.985C61.8865 172.865 61.9309 172.756 61.9783 172.642C61.9783 172.642 62.6385 175.144 65.152 173.92C67.664 172.699 79.4223 182.269 92.1458 192.83C100.003 199.35 112.807 209.559 117.212 206.538C121.539 203.57 118.209 195.01 118.09 194.708C118.21 195.014 121.561 203.22 136.096 207.446C128.124 216.465 117.744 220.761 104.01 212.916ZM118.087 194.699H118.086L118.087 194.699V194.699Z" fill="#D05A3B"/>
<path d="M73.554 15.7107C73.4993 24.4313 80.5068 31.5467 89.2038 31.6026C97.9012 31.6578 104.997 24.632 105.051 15.9098C105.107 7.18802 98.1014 0.0725584 89.4036 0.0169164C80.7052 -0.0375744 73.6097 6.98752 73.554 15.7107Z" fill="#E61017"/>
</svg>
