<svg width="17" height="19" viewBox="0 0 17 19" fill="none" xmlns="http://www.w3.org/2000/svg">
<path fill-rule="evenodd" clip-rule="evenodd" d="M0 15.252C0 16.5556 0.0836582 17.4278 1.17401 18.2866C1.39116 18.4576 1.68526 18.6287 1.9528 18.73C2.33073 18.873 2.7902 19 3.30159 19H13.2841C13.7728 19 14.2633 18.8861 14.6063 18.7417C14.9702 18.5886 15.3132 18.4147 15.6057 18.1379C16.623 17.1754 16.5857 16.3373 16.5857 15.1035C16.5857 14.349 16.4432 13.5396 16.2904 12.8992C15.9702 11.5569 15.2716 10.1553 13.9196 9.52369C13.4131 9.28712 12.8109 9.16602 12.1965 9.16602C11.3409 9.16602 9.45971 11.7159 6.09765 10.0572C5.54375 9.78391 4.90283 9.16602 4.27265 9.16602C1.97606 9.16602 0.678899 11.0358 0.288008 12.9666C0.214588 13.3292 0.135527 13.6779 0.0886813 14.0379C0.0367716 14.4368 0 14.8263 0 15.252ZM3.37927 4.34179C3.37927 4.92527 3.36969 5.18149 3.52618 5.76003C3.57115 5.92629 3.60866 6.02324 3.66518 6.18389L3.93061 6.74669C5.10347 8.80315 7.70276 9.74337 10.1217 8.77955C10.4356 8.6545 10.9704 8.3367 11.2157 8.11763C11.7649 7.62698 12.1953 7.21798 12.5334 6.51916C13.51 4.50063 12.8345 2.19903 11.0095 0.874293C10.5524 0.542507 9.99002 0.286623 9.43913 0.147992C9.10703 0.0644245 8.75228 0.0148439 8.39217 0H7.93158C7.28543 0.0264929 6.64558 0.164979 6.11061 0.420022C4.59386 1.14315 3.37927 2.68295 3.37927 4.34179Z" fill="white"/>
</svg>
