<svg width="97" height="30" viewBox="0 0 97 30" fill="none" xmlns="http://www.w3.org/2000/svg">
<path fill-rule="evenodd" clip-rule="evenodd" d="M30.6318 24.6197C32.0821 26.4089 33.4457 28.1927 34.9021 29.9818C38.2099 29.9818 41.6106 29.9818 44.9184 29.9818C42.1978 26.5343 39.0551 22.5779 36.3344 19.1303L30.6318 24.6197Z" fill="white"/>
<path fill-rule="evenodd" clip-rule="evenodd" d="M11.5479 29.9818L14.5639 27.8363L25.8523 18.5715C23.3432 15.4861 20.9045 12.3959 18.4615 9.29633C21.7692 9.29633 25.077 9.29633 28.4778 9.29633C29.5765 10.752 30.6714 12.1928 31.8685 13.6337L53.9587 0L21.9745 29.9818H11.5479Z" fill="#E31E24"/>
<path fill-rule="evenodd" clip-rule="evenodd" d="M3.40671 14.0138C2.23815 19.3403 1.16846 24.6611 0 29.9819C0.0989709 29.9819 0.290695 29.9819 0.389565 29.9819C3.30784 29.9819 6.32498 29.9819 9.34203 29.9819C10.7954 23.0924 12.2545 16.203 13.8125 9.29642C9.63272 9.29642 5.35416 9.29642 1.16846 9.29642C0.778995 10.8824 0.488435 12.4509 0.0989709 14.0138C1.16846 14.0138 2.23815 14.0138 3.40671 14.0138Z" fill="white"/>
<path d="M82.2044 15.1237C82.2044 17.2955 81.4947 19.0895 80.0755 20.5059C78.6561 21.9222 76.8411 22.6304 74.6302 22.6304C72.9378 22.6304 71.5017 22.192 70.3218 21.3156L70.3345 21.3044C70.4622 21.192 70.5863 21.0756 70.7067 20.9555C71.1422 20.5209 71.5278 20.0415 71.85 19.519C72.1298 19.0653 72.3568 18.5885 72.534 18.0939C72.6382 18.3265 72.7741 18.537 72.9414 18.7253C73.3849 19.2244 74.0229 19.4739 74.8554 19.4739C75.879 19.4739 76.6739 19.0254 77.2402 18.1285C77.8066 17.2314 78.0898 16.2433 78.0898 15.1642C78.0898 14.3279 77.868 13.6669 77.4245 13.1813C76.9809 12.6957 76.3429 12.4529 75.5105 12.4529C74.4733 12.4529 73.675 12.898 73.1154 13.7883C72.7243 14.4107 72.4699 15.0825 72.3522 15.8037C72.3192 16.0057 72.297 16.2115 72.2855 16.4212C72.1384 17.4318 71.8077 18.3589 71.2982 19.1865C71.0069 19.6577 70.6567 20.0975 70.2474 20.5059C70.1357 20.6174 70.0215 20.7245 69.9048 20.8272C69.8771 20.8514 69.8493 20.8756 69.8211 20.8996C69.8207 20.9001 69.8202 20.9005 69.8197 20.9009C68.4694 22.0538 66.7968 22.6304 64.8022 22.6304C62.9599 22.6304 61.4211 22.1111 60.186 21.0724C58.951 20.0338 58.3335 18.6107 58.3335 16.8031C58.3335 14.6449 59.0431 12.8543 60.4624 11.4312C61.8817 10.008 63.69 9.29644 65.8872 9.29644C67.5852 9.29644 69.0281 9.7376 70.216 10.6199C70.0835 10.7366 69.9549 10.8577 69.8301 10.9827C68.9992 11.8159 68.3939 12.7656 68.0111 13.8223C67.9059 13.5825 67.7677 13.3688 67.5965 13.1813C67.1529 12.6957 66.5149 12.4529 65.6825 12.4529C64.6453 12.4529 63.8469 12.898 63.2874 13.7883C62.7278 14.6787 62.4481 15.6701 62.4481 16.7626C62.4481 17.572 62.6698 18.2262 63.1134 18.7253C63.5569 19.2244 64.1949 19.4739 65.0274 19.4739C66.051 19.4739 66.8459 19.0254 67.4122 18.1285C67.8119 17.4953 68.0706 16.8168 68.1882 16.0931C68.2188 15.9051 68.2398 15.7142 68.2513 15.5202L68.2551 15.4486H68.262C68.5034 13.8842 69.1795 12.5451 70.2905 11.4312C70.4292 11.292 70.5717 11.1597 70.7179 11.0342C72.067 9.8759 73.7324 9.29644 75.7152 9.29644C77.5575 9.29644 79.0996 9.81582 80.3416 10.8544C81.5835 11.8931 82.2044 13.3162 82.2044 15.1237Z" fill="white"/>
<path d="M55.1827 15.9533C55.7558 16.1826 56.213 16.5434 56.5541 17.0358C56.8953 17.5281 57.066 18.0644 57.066 18.6443C57.066 21.0723 54.9984 22.2864 50.8634 22.2864H44.9883L47.4653 9.64046H52.9309C56.1789 9.64046 57.8029 10.6859 57.8029 12.7767C57.8029 13.5455 57.5674 14.1997 57.0966 14.7393C56.6258 15.2789 55.9878 15.6835 55.1827 15.9533ZM53.1561 18.1992C53.1561 17.4843 52.5488 17.1268 51.3342 17.1268H49.9217L49.4713 19.393H50.9862C51.8323 19.393 52.4055 19.3087 52.7057 19.1401C53.0059 18.9714 53.1561 18.6579 53.1561 18.1992ZM53.6883 13.4848C53.6883 12.8508 53.1492 12.5338 52.0711 12.5338H50.8224L50.3721 14.8C50.8634 14.7865 51.2182 14.7798 51.4365 14.7798C52.2144 14.7798 52.7842 14.6752 53.1458 14.4662C53.5075 14.2571 53.6883 13.9299 53.6883 13.4848Z" fill="white"/>
<path d="M87.7269 15.0023H87.7473L92.4146 9.64045H97L91.084 15.8116L94.4207 22.2864H89.8149L87.3584 16.9447H87.3379L86.2939 22.2864H82.2612L84.7382 9.64045H88.7504L87.7269 15.0023Z" fill="white"/>
<path d="M52.059 27.4521L52.6328 24.2202H54.3634L53.2886 29.9007H51.3213L49.9915 26.6329L49.3995 29.8468H47.6689L48.7346 24.2382H50.7293L52.059 27.4521ZM58.7898 29.8468H54.3451L55.4472 24.2202H59.8919L59.6278 25.5976H56.9318L56.7861 26.3358H59.0084L58.7352 27.7132H56.5128L56.3671 28.4693H59.0631L58.7898 29.8468ZM64.3821 26.1467L62.597 29.8468H60.8027L60.4293 24.2202H62.3329L62.1325 27.8212L63.7264 24.2202H65.6937L65.8668 27.8212L67.0963 24.2202H69.0637L66.4315 29.8468H64.5916L64.3821 26.1467ZM70.7486 28.5324C71.289 28.5324 71.5592 28.4274 71.5592 28.2173C71.5592 28.1213 71.5046 28.0418 71.3953 27.9787C71.286 27.9157 71.0127 27.8002 70.5756 27.6321C70.3509 27.5421 70.1596 27.4551 70.0018 27.3711C69.8439 27.287 69.6815 27.179 69.5145 27.047C69.3475 26.915 69.2215 26.7544 69.1365 26.5654C69.0515 26.3763 69.009 26.1618 69.009 25.9217C69.009 25.3515 69.2291 24.9044 69.6693 24.5803C70.1095 24.2562 70.6788 24.0942 71.377 24.0942C72.3061 24.0942 73.0863 24.2502 73.7178 24.5623L73.399 26.0747C73.0954 25.9247 72.763 25.8002 72.4017 25.7011C72.0405 25.6021 71.7353 25.5526 71.4863 25.5526C71.2678 25.5526 71.1053 25.5841 70.9991 25.6471C70.8928 25.7101 70.8397 25.7836 70.8397 25.8677C70.8397 25.9577 70.8837 26.0282 70.9718 26.0792C71.0598 26.1302 71.286 26.2218 71.6503 26.3538C71.7414 26.3898 71.8112 26.4168 71.8598 26.4348C72.3516 26.6209 72.7311 26.8309 72.9983 27.065C73.2655 27.299 73.399 27.6051 73.399 27.9832C73.399 28.6194 73.1683 29.1116 72.7068 29.4596C72.2453 29.8078 71.6169 29.9818 70.8215 29.9818C70.3964 29.9818 69.9653 29.9338 69.5281 29.8378C69.091 29.7417 68.7479 29.6307 68.4989 29.5046L68.8177 27.9922C69.1335 28.1543 69.478 28.2848 69.8515 28.3839C70.2249 28.4829 70.524 28.5324 70.7486 28.5324Z" fill="#E31E24"/>
</svg>
