<svg width="15" height="15" viewBox="0 0 15 15" fill="none" xmlns="http://www.w3.org/2000/svg">
<path fill-rule="evenodd" clip-rule="evenodd" d="M5.86489 3.51895V4.76303H8.95731C10.2704 4.76303 11.3744 5.85003 11.3744 7.25118C11.3744 8.55638 10.2625 9.66824 8.95731 9.66824H5.86489C5.86489 10.4495 5.84254 11.7409 5.92925 12.4475C5.99464 12.9801 6.12701 13.2554 6.39247 13.5838C6.93004 14.2488 7.56661 14.4313 8.74403 14.4313C9.72371 14.4313 12.6369 14.5163 13.4441 14.2972C14.0972 14.1199 14.7026 13.5025 14.8731 12.847C14.9713 12.4697 15 11.9761 15 11.5166V2.91469C15 1.89647 14.9266 1.14617 14.1582 0.521896C13.5738 0.0471659 12.9551 0 12.1564 0H8.74403C7.56661 0 6.93004 0.182463 6.39247 0.847466C6.12701 1.17584 5.99464 1.4512 5.92925 1.9838C5.87496 2.42614 5.86489 3.01673 5.86489 3.51895Z" fill="white"/>
<path fill-rule="evenodd" clip-rule="evenodd" d="M0 7.21569C0 7.69042 0.346725 7.97118 0.595383 8.21983C0.876577 8.50102 1.13172 8.75617 1.41291 9.03737C1.68817 9.31264 1.9374 9.56185 2.21268 9.83712C2.46547 10.0899 2.75323 10.4503 3.23459 10.4503C3.75836 10.4503 4.19431 10.0143 4.19431 9.49056C4.19431 8.8392 3.56648 8.56487 3.30569 8.17539C4.56162 8.17539 5.81754 8.17539 7.07347 8.17539C7.68273 8.17539 8.35705 8.20304 8.95802 8.17608C10.1744 8.12151 10.1744 6.30985 8.95802 6.25527C8.35705 6.22832 7.68273 6.25597 7.07347 6.25597C5.81754 6.25597 4.56162 6.25597 3.30569 6.25597C3.56648 5.86649 4.19431 5.59216 4.19431 4.9408C4.19431 4.41701 3.75836 3.98108 3.23459 3.98108C2.75988 3.98108 2.4791 4.32782 2.23045 4.57646C1.94926 4.85766 1.69411 5.1128 1.41291 5.39399C1.13764 5.66926 0.888417 5.91848 0.613142 6.19376C0.360336 6.44656 0 6.73433 0 7.21569Z" fill="white"/>
</svg>
