<svg width="15" height="15" viewBox="0 0 15 15" fill="none" xmlns="http://www.w3.org/2000/svg">
<path fill-rule="evenodd" clip-rule="evenodd" d="M4.4238 10.4883V8.81836C3.90608 8.81836 3.52776 8.81918 3.09729 9.24962C2.69158 9.65529 2.66603 10.0112 2.66603 10.5176C2.66603 11.4637 3.01381 12.4119 3.33944 13.0375C3.51671 13.3781 4.56978 14.8884 4.59962 15H8.67188C8.69956 14.8813 8.80819 14.6991 8.86751 14.5804C9.33838 13.6394 9.69725 12.1418 9.69725 11.0743C9.69725 10.3939 9.82133 9.71851 9.30922 9.20639C9.18783 9.08507 9.12419 9.02331 8.95563 8.94475C8.79802 8.8713 8.65658 8.81836 8.43749 8.81836H7.06052V6.09376C7.06052 5.71615 6.64712 5.30275 6.26951 5.30275C5.92099 5.30275 5.7197 5.34375 5.47336 5.64918C5.28486 5.8829 5.30268 6.07211 5.30275 6.47464L5.30375 10.4307C5.3047 11.2352 4.4238 11.1698 4.4238 10.4883ZM0 3.36916C0 4.17881 0.084579 4.65691 0.492202 5.33787C0.547407 5.4301 0.588439 5.50217 0.652467 5.58778C1.27425 6.41883 2.30649 7.06052 3.36916 7.06052C3.89839 7.06052 3.90229 7.06488 4.4238 6.94335C4.4238 6.09883 4.39814 5.65471 4.77069 5.15156C5.17229 4.60908 5.86568 4.31133 6.56967 4.47525C6.7018 4.506 6.78368 4.55947 6.91404 4.57028C6.91879 4.35867 7.06052 4.23349 7.06052 3.36916C7.06052 2.90432 6.88874 2.35014 6.72887 2.03089C6.15885 0.892349 5.00841 0 3.7207 0C2.76694 0 2.25103 0.140563 1.4996 0.650022C1.42211 0.702534 1.33388 0.764365 1.2667 0.827259C0.880585 1.18868 0.583726 1.50276 0.341292 2.01122C0.180532 2.34837 0 2.88873 0 3.36916H0ZM2.05463 2.98624L2.92799 3.85956L5.00593 1.77432L5.63724 2.40209L2.92731 5.12151L1.42332 3.61755L2.05463 2.98624ZM7.93948 3.36916C7.93948 4.08077 7.97683 4.41845 8.27127 5.0588C8.77528 6.15474 10.0473 7.06052 11.2793 7.06052H11.6309C12.9414 7.06052 14.1057 6.15113 14.6485 5.06836C14.8469 4.6725 14.9705 4.20007 15 3.72413V3.28657C14.9857 3.06175 14.9485 2.84125 14.8865 2.63308C14.7399 2.14084 14.6285 1.91088 14.3502 1.49943C14.1927 1.26652 13.7509 0.823432 13.5182 0.661573C12.9394 0.259087 12.3013 0.0405356 11.6639 0H11.2275C10.4022 0.0530435 9.60144 0.4061 8.95751 1.04733C8.4827 1.52012 7.93948 2.43635 7.93948 3.36916ZM9.67018 4.63866L10.8083 3.49028L9.67014 2.34185L10.3364 1.67932L11.4697 2.82289L12.6031 1.67932L13.2693 2.34185L12.1312 3.49028L13.2693 4.63866L12.603 5.30123L11.4697 4.15769L10.3364 5.30123L9.67018 4.63866Z" fill="white"/>
</svg>
