<svg width="15" height="15" viewBox="0 0 15 15" fill="none" xmlns="http://www.w3.org/2000/svg">
<path fill-rule="evenodd" clip-rule="evenodd" d="M0 0.878909C0 1.49369 0.16787 1.55948 0.622552 2.01416C1.15576 2.54735 5.95771 7.38929 6.12304 7.5C6.01051 7.66805 0.919004 12.7204 0.240991 13.3953C0.0943565 13.5412 0.0194087 13.7199 0 13.9045V14.1053C0.046487 14.5647 0.400317 15 0.820317 15C1.49219 15 1.47449 14.9171 2.02881 14.3628C2.56089 13.8307 7.32939 9.0205 7.5 8.90626C7.66551 9.01707 12.4232 13.8148 12.9565 14.3481C13.5179 14.9095 13.5009 15 14.1797 15C14.3052 15 14.4034 14.9526 14.4932 14.9033C14.8789 14.6916 15 14.386 15 13.9453C15 13.5506 14.5934 13.2311 14.3774 13.0151C13.8373 12.475 8.99178 7.67148 8.87696 7.5C9.05699 7.37944 9.47512 6.91649 9.66065 6.73096L14.3628 2.02881C14.8224 1.5692 15 1.50163 15 0.878909C15 0.432235 14.4998 0 14.0625 0C13.5278 0 13.3346 0.303065 13.0591 0.578609C12.7883 0.849443 12.5389 1.09881 12.2681 1.36963C11.9908 1.64691 7.64604 6.02525 7.5 6.12304C7.33371 6.0117 2.49423 1.13193 1.95557 0.593257C1.69426 0.331943 1.46906 0 0.966796 0C0.472826 0 0 0.446152 0 0.878909Z" fill="white"/>
</svg>
