<svg width="14" height="15" viewBox="0 0 14 15" fill="none" xmlns="http://www.w3.org/2000/svg">
<path fill-rule="evenodd" clip-rule="evenodd" d="M0 12.041C0 13.0702 0.066046 13.7588 0.926849 14.4368C1.09828 14.5718 1.33047 14.7069 1.54169 14.7868C1.84005 14.8998 2.20279 15 2.60652 15H10.4874C10.8732 15 11.2605 14.9101 11.5313 14.7961C11.8185 14.6752 12.0893 14.5379 12.3203 14.3194C13.1234 13.5595 13.0939 12.8979 13.0939 11.9238C13.0939 11.3281 12.9815 10.6891 12.8609 10.1836C12.608 9.12388 12.0565 8.01731 10.9891 7.5187C10.5893 7.33194 10.1138 7.23633 9.62879 7.23633C8.95333 7.23633 7.46819 9.24942 4.81393 7.93989C4.37664 7.72414 3.87066 7.23633 3.37314 7.23633C1.56005 7.23633 0.535973 8.71245 0.227374 10.2368C0.169412 10.5231 0.106995 10.7984 0.0700115 11.0825C0.0290302 11.3975 0 11.7049 0 12.041ZM2.66785 3.42773C2.66785 3.88837 2.66029 4.09065 2.78383 4.54739C2.81933 4.67865 2.84894 4.75519 2.89356 4.88201L3.10312 5.32634C4.02905 6.94985 6.08113 7.69213 7.99085 6.93122C8.23864 6.8325 8.66087 6.58161 8.85447 6.40866C9.28805 6.0213 9.62786 5.6984 9.89479 5.1467C10.6658 3.55313 10.1325 1.73608 8.69167 0.690231C8.33082 0.428295 7.88686 0.226282 7.45195 0.116836C7.18976 0.0508615 6.90969 0.0117189 6.6254 0H6.26177C5.75166 0.0209155 5.24651 0.130247 4.82417 0.331596C3.62674 0.90249 2.66785 2.11812 2.66785 3.42773Z" fill="white"/>
</svg>
