<svg width="15" height="15" viewBox="0 0 15 15" fill="none" xmlns="http://www.w3.org/2000/svg">
<path fill-rule="evenodd" clip-rule="evenodd" d="M0 7.38282C0 7.87796 0.0464881 8.11703 0.417188 8.48908C0.625357 8.69803 0.931073 8.88596 1.34798 8.87664C1.71836 8.86835 1.61135 8.84426 1.61135 9.93163C1.61135 10.7304 1.55299 13.4319 1.66326 13.8348C1.83522 14.463 2.47227 15 3.13476 15H5.62499C6.18512 15 6.06447 14.3177 6.06447 14.0039L6.06376 11.1321C6.06117 10.6543 6.35293 10.3125 6.70899 10.3125H8.29101C8.49464 10.3125 8.6504 10.442 8.75355 10.5531C8.87586 10.6848 8.93688 10.8534 8.9366 11.1025C8.9361 11.5228 8.89929 14.5073 8.95212 14.6904C9.00201 14.8633 9.16344 15 9.37501 15H11.8652C12.2439 15 12.6027 14.812 12.8104 14.6268C13.503 14.0092 13.3886 13.5272 13.3886 12.5683V9.2871C13.388 8.91541 13.294 8.86864 13.652 8.87664C14.4172 8.89372 14.9572 8.25065 15 7.56715V7.39235C14.9859 7.16969 14.9169 6.94831 14.7838 6.74942C14.5928 6.46429 9.49506 1.4238 8.78172 0.710467C8.25727 0.185988 8.14722 0 7.38282 0C6.85009 0 6.5106 0.418145 6.23292 0.695798L0.695798 6.23292C0.418145 6.5106 0 6.85009 0 7.38282Z" fill="white"/>
</svg>
