<svg width="15" height="15" viewBox="0 0 15 15" fill="none" xmlns="http://www.w3.org/2000/svg">
<path fill-rule="evenodd" clip-rule="evenodd" d="M10.1953 5.88867V8.46679C10.1953 8.60389 10.2429 8.71318 10.3193 8.78223C10.396 8.85155 10.4971 8.90625 10.6348 8.90625H14.5605C14.8107 8.90625 15 8.71692 15 8.46679V5.94726C15 4.99187 14.1456 4.16015 13.2422 4.16015C12.2618 4.16015 11.4102 4.0174 10.7441 4.67962C10.4855 4.93667 10.1953 5.38816 10.1953 5.88867V5.88867ZM6.32812 3.48632C6.47043 3.36263 6.44531 3.4496 6.44531 3.13476H8.5547C8.5547 3.50857 8.53868 3.34804 8.59366 3.41807L8.67188 3.48632C8.81848 3.45217 9.19447 3.21614 9.33988 3.12895C10.0112 2.7264 10.2803 2.76282 9.38505 2.2751C8.69219 1.89766 8.5547 1.68929 8.5547 2.22656H6.44531C6.44531 1.70392 6.32136 1.88249 5.63406 2.26491C5.46611 2.35837 5.05256 2.546 5.05462 2.69117C5.05683 2.84662 5.4319 2.99438 5.64193 3.11783C5.79703 3.20901 6.17724 3.45118 6.32812 3.48632ZM0.732431 11.1328H0.9375V12.3926C0.9375 12.648 1.22008 12.8027 1.49414 12.8027H2.78319C2.78319 13.4219 3.16949 13.0045 3.91676 12.5886C4.33245 12.3573 4.25328 12.264 3.91572 12.0804C3.80037 12.0176 3.70719 11.966 3.5977 11.9004C3.45084 11.8123 3.07491 11.5768 2.92968 11.543C2.78117 11.6721 2.78319 11.6432 2.78319 11.8945H1.84569V11.1328C2.37768 11.1328 2.15835 10.9354 1.81786 10.3403C1.71111 10.1537 1.57031 9.83643 1.40625 9.72655C1.20041 9.77451 1.04897 10.1518 0.906688 10.3989C0.85751 10.4843 0.377938 11.1328 0.732431 11.1328V11.1328ZM12.832 10.9863C12.832 11.1618 13.0653 11.1328 13.1543 11.1328V11.8945H12.2168C12.2168 11.6504 12.2245 11.677 12.0703 11.543C11.9282 11.5761 11.5613 11.804 11.4204 11.8892C11.3235 11.9479 10.8106 12.1819 10.8106 12.3047C10.8106 12.5084 11.0699 12.5738 11.3982 12.7718C11.9449 13.1015 12.2168 13.3398 12.2168 12.8027H13.5059C13.7799 12.8027 14.0625 12.648 14.0625 12.3926V11.1328C14.2389 11.1328 14.5542 11.1652 14.3215 10.7861L13.8926 10.043C13.8104 9.90574 13.7677 9.7671 13.5938 9.72655C13.4191 9.84351 12.832 10.9386 12.832 10.9863V10.9863ZM5.59571 7.88086C5.59571 8.49223 5.72764 8.93733 6.13005 9.3387C6.8881 10.0948 8.10998 10.0986 8.85524 9.35328C9.5064 8.70214 9.59752 7.63789 9.05318 6.88432C9.01029 6.82494 8.99284 6.81607 8.94468 6.75845C8.89005 6.69304 8.90575 6.68944 8.83939 6.62936C8.23438 6.08166 7.44716 5.93263 6.69997 6.26052L6.2912 6.52558C5.90299 6.87374 5.59571 7.2992 5.59571 7.88086V7.88086ZM10.6934 1.72851C10.6934 2.36519 10.7707 2.78786 11.2424 3.25955C11.9876 4.00475 13.221 3.99264 13.9535 3.26014C14.7907 2.42293 14.6497 1.02381 13.7117 0.350817C13.4165 0.139031 13.0791 0.0241831 12.7386 0H12.4647C11.826 0.0453396 11.2134 0.406713 10.888 1.04424C10.8098 1.19742 10.6934 1.51556 10.6934 1.72851ZM0.498041 1.78711C0.498041 2.40058 0.632982 2.83826 1.03187 3.24546C1.76272 3.99155 3.00653 4.0106 3.75759 3.25955C4.50548 2.51164 4.48618 1.27646 3.75818 0.54846C3.42682 0.217101 2.97796 0.0276378 2.51529 0H2.28046C2.04196 0.0141437 1.80446 0.071752 1.58197 0.175719C0.990709 0.452023 0.498041 1.12304 0.498041 1.78711V1.78711ZM5.09765 12.041V14.5605C5.09765 14.8213 5.27631 15 5.53711 15H9.46289C9.72369 15 9.90235 14.8213 9.90235 14.5605V12.041C9.90235 11.0719 9.06189 10.2539 8.08593 10.2539H6.91407C5.93811 10.2539 5.09765 11.0719 5.09765 12.041V12.041ZM0 5.94726V8.46679C0 8.71692 0.189331 8.90625 0.439459 8.90625H4.36524C4.50291 8.90625 4.60401 8.85155 4.68068 8.78223C4.75707 8.71318 4.80468 8.60389 4.80468 8.46679V5.88867C4.80468 5.39942 4.52191 4.94569 4.27054 4.69432C3.59083 4.01461 2.76503 4.16015 1.75782 4.16015C0.855207 4.16015 0 4.99128 0 5.94726H0Z" fill="white"/>
</svg>
