<svg width="15" height="15" viewBox="0 0 15 15" fill="none" xmlns="http://www.w3.org/2000/svg">
<path fill-rule="evenodd" clip-rule="evenodd" d="M1.33373 0H10.3359C11.0367 0 11.6101 0.573366 11.6101 1.27416V3.81715C11.3975 4.0199 11.1503 4.23899 10.9975 4.46714L10.7732 4.80207L10.4584 5.00815C10.1454 5.21308 9.81021 5.61991 9.53781 5.8923L8.85889 6.57123H2.43639C2.04251 6.57123 1.72024 6.89349 1.72024 7.28737C1.72024 7.68125 2.04251 8.00352 2.43639 8.00352H7.42659L6.67878 8.75133C6.58327 8.84684 6.48924 8.94257 6.40385 9.04519H2.43639C2.04251 9.04519 1.72024 9.36746 1.72024 9.76134C1.72024 10.1552 2.04251 10.4775 2.43639 10.4775H5.67267L5.13647 11.6272L5.13088 11.6407C5.08405 11.7542 5.01796 11.868 4.96491 11.98C4.83692 12.2501 4.74846 12.5303 4.7837 12.8334C4.8136 13.0906 4.9292 13.3185 5.11179 13.5011C5.73921 14.1285 6.57444 13.7015 7.2242 13.3729C7.33073 13.319 7.43778 13.2652 7.54689 13.2167L7.55247 13.2142L8.12355 12.9472L8.13232 12.9428C8.49568 12.7593 8.87259 12.6037 9.23799 12.4241C9.51955 12.2857 9.86095 11.9554 10.0898 11.7378C10.448 11.3973 10.7957 11.0436 11.142 10.691C11.2981 10.5319 11.4539 10.3724 11.6101 10.2133V13.7258C11.6101 14.4266 11.0367 15 10.3359 15H1.33373C0.632936 15 0.0595703 14.4266 0.0595703 13.7258V1.27416C0.0595703 0.573366 0.632936 0 1.33373 0V0ZM13.1033 7.82405L10.8144 5.55207C10.6284 5.67385 10.1963 6.15316 9.9975 6.35198L7.13846 9.21102C6.68843 9.66103 6.81236 9.61611 6.51122 10.2175L5.73181 11.8887C5.58937 12.2339 5.22435 12.6943 5.57148 13.0414C5.94186 13.4118 6.64231 12.9075 7.28268 12.6227L7.8393 12.3625C8.21225 12.1742 8.58523 12.0206 8.95123 11.8407C9.46045 11.5904 11.6786 9.13494 12.2915 8.64599C12.4207 8.54288 13.0242 7.9422 13.1033 7.82405ZM11.5376 4.82886L13.8096 7.11774C13.9802 7.00075 14.2942 6.65014 14.4562 6.48813C14.8576 6.08678 14.9413 6.03359 14.9413 5.47556C14.9413 5.0304 14.4637 4.67471 14.218 4.42894C13.7297 3.94066 13.649 3.70568 12.9672 3.70568C12.5956 3.70568 12.371 3.97844 12.1758 4.17366C12.0105 4.33903 11.6482 4.66382 11.5376 4.82886ZM2.43639 4.09726H9.23328C9.62716 4.09726 9.94943 4.41952 9.94943 4.81341C9.94943 5.20729 9.62716 5.52955 9.23328 5.52955H2.43639C2.04251 5.52955 1.72024 5.20729 1.72024 4.81341C1.72024 4.41952 2.04251 4.09726 2.43639 4.09726ZM2.43639 1.62329H9.23328C9.62716 1.62329 9.94943 1.94556 9.94943 2.33944C9.94943 2.73332 9.62716 3.05559 9.23328 3.05559H2.43639C2.04251 3.05559 1.72024 2.73332 1.72024 2.33944C1.72024 1.94556 2.04251 1.62329 2.43639 1.62329Z" fill="white"/>
</svg>
