<svg width="15" height="15" viewBox="0 0 15 15" fill="none" xmlns="http://www.w3.org/2000/svg">
<path fill-rule="evenodd" clip-rule="evenodd" d="M0.00585938 7.46525C0.00585938 8.93785 0.368103 10.04 1.01609 11.2458C1.17893 11.5488 1.65657 12.2208 1.88728 12.4603C2.27598 12.8638 2.51805 13.1221 2.99021 13.4758C3.37427 13.7634 3.6712 13.9589 4.11218 14.1789C4.8679 14.5558 6.07602 14.9563 6.94669 14.9619C7.18302 14.9634 7.2791 14.9967 7.50196 14.9954C7.70802 14.9943 7.85248 14.968 8.08921 14.962C9.35952 14.9297 10.7356 14.2114 10.9562 14.2114C11.2131 14.2114 12.4496 14.5356 12.8008 14.6154C13.0892 14.6809 13.219 14.7329 13.5308 14.7329C14.1488 14.7329 14.704 14.1988 14.704 13.4618C14.704 13.2495 14.4242 12.3075 14.3526 12.0534C14.3169 11.9266 14.2944 11.855 14.261 11.7214C14.1311 11.2023 14.0462 11.1763 14.2798 10.6585C15.2755 8.45179 15.2108 5.81481 13.961 3.74342C13.8401 3.54298 13.7315 3.38142 13.6028 3.1891L12.3252 1.79426C12.1526 1.66102 11.9998 1.52337 11.8103 1.39664C11.6244 1.27227 11.4691 1.16789 11.2762 1.05087C11.1696 0.986208 11.0898 0.954953 10.9783 0.892444C10.12 0.411262 8.77714 0.034668 7.79492 0.034668H7.1757C5.47488 0.034668 3.82112 0.82608 2.60299 1.84964C2.09987 2.27238 1.69014 2.75926 1.30957 3.2938C0.510161 4.4166 0.00585938 6.05287 0.00585938 7.46525Z" fill="white"/>
</svg>
