<svg width="15" height="14" viewBox="0 0 15 14" fill="none" xmlns="http://www.w3.org/2000/svg">
<path fill-rule="evenodd" clip-rule="evenodd" d="M0 2.63378C0 5.32065 1.58356 8.43869 3.13543 10.5038L4.72988 12.327C5.05695 12.5879 5.19601 12.7673 5.67527 13.1061C5.89251 13.2597 6.11984 13.408 6.37538 13.5348C7.26421 13.9756 7.12617 13.9369 8.02664 13.4823L8.83293 13.0971C9.22537 12.9296 9.74402 12.7391 9.93372 12.4107C10.2204 11.9143 9.91422 11.5223 9.68255 11.1369C9.52935 10.8821 9.39438 10.6343 9.24797 10.38C9.09775 10.119 8.75917 9.45313 8.54769 9.29304C7.98061 8.86377 7.42529 9.34376 6.91905 9.61553L6.30227 9.93938C6.15815 9.84288 5.87323 9.53923 5.75598 9.38828L5.26303 8.78382C4.94125 8.35364 4.66948 7.93126 4.38784 7.46419L3.91067 6.5931C3.87638 6.52173 3.85792 6.46145 3.82571 6.39586C3.63955 6.01667 3.46044 5.63147 3.32723 5.23256L3.07275 4.35828C3.21533 4.32022 4.38853 3.5905 4.50818 3.47346C4.83814 3.15067 4.83972 2.72392 4.61117 2.34954L3.9567 1.2168C3.87776 1.08548 3.81745 0.974477 3.74089 0.83687C3.45079 0.315524 3.31661 0 2.6965 0C2.43626 0 2.04037 0.300377 1.8318 0.452203L0.255894 1.54141C0.16715 1.59902 0.149923 1.59361 0.116487 1.71557L0 2.63378Z" fill="white"/>
<path fill-rule="evenodd" clip-rule="evenodd" d="M9.03012 6.70981C8.80808 6.70981 8.19093 6.21203 7.97669 6.07009L6.0011 4.72211C5.90409 4.6577 5.85477 4.61429 5.76337 4.55223C5.66798 4.48745 5.59911 4.44342 5.49941 4.37722C5.36766 4.28971 5.11974 4.08056 4.98538 4.04467C4.90406 4.09914 4.84348 4.15204 4.74754 4.21443C4.6065 4.30617 3.95068 4.67901 3.95068 4.73447C3.95068 5.17533 4.9874 7.07191 5.33059 7.58741C5.54547 7.91021 6.18577 8.86805 6.42769 9.03004C6.90841 8.90168 7.64249 7.99613 8.79068 8.57969C9.32846 8.853 9.68898 9.68644 10.0038 10.2198C10.0246 10.255 10.0462 10.298 10.0723 10.3395C10.1126 10.4036 10.0981 10.441 10.1902 10.441H14.3604C15.1427 10.441 14.9875 9.52199 14.9875 8.99869V2.72778C14.8312 2.76418 13.7155 3.57594 13.5013 3.71856L11.6763 4.96632C11.4131 5.14109 9.24253 6.70981 9.03012 6.70981Z" fill="white"/>
<path fill-rule="evenodd" clip-rule="evenodd" d="M5.51848 2.85331C5.51848 3.08187 5.42876 3.25379 5.42442 3.44905C5.58407 3.53353 5.7244 3.63867 5.88238 3.7436L9.03019 5.8947C9.13939 5.82158 9.23418 5.74758 9.34361 5.6751C9.45743 5.59972 9.56452 5.53014 9.68274 5.44986L10.6669 4.77219C10.9837 4.56156 14.2252 2.35652 14.2977 2.25757H5.39307C5.42948 2.41392 5.51848 2.56778 5.51848 2.85331Z" fill="white"/>
</svg>
