<svg width="23" height="19" viewBox="0 0 23 19" fill="none" xmlns="http://www.w3.org/2000/svg">
<path fill-rule="evenodd" clip-rule="evenodd" d="M-0.0224609 15.2582C-0.0224609 16.5619 0.0576537 17.4341 1.10148 18.2929C1.3094 18.4639 1.59097 18.635 1.84712 18.7362C2.2089 18.8793 2.64874 19.0063 3.13833 19.0063H12.6952C13.163 19.0063 13.6325 18.8924 13.961 18.748C14.3094 18.5949 14.6377 18.421 14.9178 18.1442C15.8917 17.1817 15.856 16.3436 15.856 15.1098C15.856 14.3553 15.7196 13.546 15.5733 12.9056C15.2667 11.5633 14.5979 10.1617 13.3036 9.53011C12.8187 9.29354 12.2421 9.17241 11.6539 9.17241C10.8348 9.17241 9.03388 11.7223 5.8152 10.0636C5.28491 9.79033 4.67132 9.17241 4.068 9.17241C1.86935 9.17241 0.627453 11.0421 0.253204 12.9729C0.182991 13.3356 0.107255 13.6843 0.062414 14.0442C0.0127172 14.4431 -0.0224609 14.8326 -0.0224609 15.2582ZM16.0837 19.0063H19.8165C20.2843 19.0063 20.7539 18.8924 21.0823 18.748C21.4307 18.5948 21.7591 18.421 22.0391 18.1442C23.013 17.1817 22.9773 16.3436 22.9773 15.1098C22.9773 14.3553 22.841 13.546 22.6947 12.9056C22.388 11.5633 21.7193 10.1617 20.4249 9.53011C19.9401 9.29354 19.3634 9.17241 18.7753 9.17241C18.2884 9.17241 17.4547 10.0731 16.1827 10.4556C16.5487 11.1165 16.8066 11.8468 16.9756 12.5865C17.1622 13.4036 17.2942 14.27 17.2942 15.1098C17.2942 16.715 17.2147 17.8068 16.0837 19.0063ZM15.2151 9.15621C15.7368 9.12338 16.2673 9.0031 16.7891 8.78596C17.0895 8.66094 17.6015 8.34309 17.8363 8.12405C18.3621 7.63339 18.7742 7.22448 19.0979 6.5256C20.0328 4.50718 19.386 2.20558 17.6389 0.880851C17.2013 0.549038 16.6629 0.293184 16.1355 0.154616C15.8176 0.0710101 15.478 0.0214164 15.1332 0.00650024H14.6923C14.0737 0.0330072 13.4611 0.171528 12.949 0.426574C12.7701 0.515643 12.5956 0.617253 12.4271 0.729789C13.8982 2.49564 14.2898 4.95205 13.282 7.12776C13.1546 7.4028 13.0166 7.64564 12.8657 7.86943C13.2357 7.95242 13.5961 8.07531 13.9353 8.24077C14.4241 8.47933 14.8485 8.791 15.2151 9.15621ZM3.21273 4.34833C3.21273 4.93176 3.2035 5.188 3.35335 5.76645C3.39643 5.93271 3.43228 6.02971 3.48645 6.19037L3.74055 6.75315C4.86339 8.80957 7.35185 9.74976 9.6677 8.78596C9.96812 8.66094 10.4801 8.34309 10.715 8.12405C11.2407 7.63339 11.6527 7.22438 11.9765 6.5256C12.9115 4.50708 12.2647 2.20558 10.5175 0.880851C10.08 0.549038 9.54155 0.293184 9.01417 0.154521C8.69623 0.0710101 8.35659 0.0214164 8.01185 0.00650024H7.57087C6.95232 0.0330072 6.33973 0.171528 5.82762 0.426574C4.37547 1.14972 3.21273 2.68945 3.21273 4.34833Z" fill="black"/>
</svg>
