<svg width="21" height="19" viewBox="0 0 21 19" fill="none" xmlns="http://www.w3.org/2000/svg">
<path fill-rule="evenodd" clip-rule="evenodd" d="M7.85341 4.62779V6.26389H11.9943C13.7526 6.26389 15.2309 7.69341 15.2309 9.53607C15.2309 11.2525 13.742 12.7148 11.9943 12.7148H7.85341C7.85341 13.7422 7.8235 15.4406 7.93961 16.3697C8.02715 17.0702 8.20441 17.4323 8.55987 17.8642C9.27971 18.7387 10.1321 18.9787 11.7087 18.9787C13.0205 18.9787 16.9214 19.0905 18.0023 18.8023C18.8769 18.5692 19.6875 17.7573 19.9158 16.8952C20.0473 16.399 20.0857 15.7499 20.0857 15.1455V3.83311C20.0857 2.49406 19.9875 1.50732 18.9585 0.686338C18.176 0.0620117 17.3476 0 16.278 0H11.7087C10.1321 0 9.27971 0.239958 8.55987 1.1145C8.20441 1.54636 8.02715 1.9085 7.93961 2.60892C7.86692 3.19063 7.85341 3.96732 7.85341 4.62779ZM0 9.48933C0 10.1137 0.464282 10.4829 0.797241 10.8099C1.17376 11.1797 1.5154 11.5152 1.89195 11.885C2.26054 12.2471 2.59426 12.5748 2.96287 12.9368C3.30138 13.2693 3.68672 13.7432 4.33127 13.7432C5.03262 13.7432 5.61638 13.1699 5.61638 12.481C5.61638 11.6244 4.77569 11.2636 4.42648 10.7515C6.10822 10.7515 7.78997 10.7515 9.47171 10.7515C10.2875 10.7515 11.1905 10.7878 11.9952 10.7524C13.624 10.6806 13.624 8.29807 11.9952 8.22629C11.1905 8.19082 10.2875 8.22719 9.47171 8.22719C7.78997 8.22719 6.10822 8.22719 4.42648 8.22719C4.77569 7.71501 5.61638 7.35422 5.61638 6.49761C5.61638 5.80879 5.03262 5.23548 4.33127 5.23548C3.6956 5.23548 3.31962 5.69148 2.98666 6.01849C2.61014 6.38828 2.26847 6.72381 1.89195 7.09362C1.52333 7.45563 1.18964 7.78337 0.821024 8.1454C0.482491 8.47785 0 8.85631 0 9.48933Z" fill="black"/>
</svg>
