<svg width="15" height="19" viewBox="0 0 15 19" fill="none" xmlns="http://www.w3.org/2000/svg">
<path fill-rule="evenodd" clip-rule="evenodd" d="M6.11064 12.7925V12.4725C6.11064 10.9152 8.93959 10.5444 8.93959 12.7285C8.93959 13.1405 8.75954 13.3864 8.50549 13.5864C7.66209 14.2501 8.96985 16.5051 7.49221 16.5051C6.60246 16.5051 6.83292 15.2088 6.83439 14.6487C6.83594 14.0623 6.92389 13.9247 6.58939 13.6069C6.39848 13.4255 6.11064 13.1242 6.11064 12.7925ZM1.70274 5.36729C1.70274 6.52303 1.59713 6.39146 3.67641 6.39146C4.8886 6.39146 3.54793 4.46116 5.85953 3.01063C7.99006 1.67369 10.7817 3.38239 10.7817 5.4313V7.67166H1.63693C0.717778 7.67166 -0.0078125 8.31148 -0.0078125 9.20792V17.5293C-0.0078125 18.3378 0.77562 19.0015 1.63693 19.0015H13.3475C14.2879 19.0015 14.9922 18.3162 14.9922 17.4013V9.27193C14.9922 8.3987 14.2953 7.67166 13.4133 7.67166C13.4133 6.27745 13.5206 4.8177 12.9317 3.59552C12.1483 1.9698 11.0068 0.800727 9.14571 0.237946C5.49039 -0.867409 1.70274 2.08098 1.70274 5.36729Z" fill="black"/>
</svg>
